<?xml version="1.0" encoding="utf-8"?>
<!-- Generator: Adobe Illustrator 18.0.0, SVG Export Plug-In . SVG Version: 6.00 Build 0)  -->
<!DOCTYPE svg PUBLIC "-//W3C//DTD SVG 1.1//EN" "http://www.w3.org/Graphics/SVG/1.1/DTD/svg11.dtd">
<svg version="1.1" id="Layer_1" xmlns="http://www.w3.org/2000/svg" xmlns:xlink="http://www.w3.org/1999/xlink" x="0px" y="0px"
	 width="800px" height="600px" viewBox="0 0 800 600" enable-background="new 0 0 800 600" xml:space="preserve">
<g>
	<rect x="0" fill="#EFEEEA" width="800" height="600"/>
	<g>
		<defs>
			<rect id="SVGID_1_" x="0" width="800" height="600"/>
		</defs>
		<clipPath id="SVGID_2_">
			<use xlink:href="#SVGID_1_"  overflow="visible"/>
		</clipPath>
		<g clip-path="url(#SVGID_2_)">
			<g>
				<path fill="#875999" d="M-8.5,24.6c-11.7,7.9-24.2,9.6-35.5,18.7c-13.6,11-27.7,19.2-30.6,38.3c-4.4,30,6.8,60.7,32.8,77.3
					c22.1,14,55.1,19.2,78.3,7.5c24.4-12.4,36-37,35.9-65c-0.1-24.9,0.2-52.5-17.2-72.6C42,13.4,6.8,14.2-8.5,24.6z"/>
				<g>
					<g>
						<path fill="#D17DB4" d="M-1.2,52.2c4.3,1.9,6.4,8.9,12,7.8c5.2-1,3.1-9.7,4.7-13c0.8-1.7-1.8-3.3-2.6-1.5
							c-0.8,1.6-0.9,3.4-1.1,5.2c-0.1,1.6,0.1,5.7-1.8,6.4c-1.8,0.7-4.5-2.8-5.5-3.9c-1.3-1.3-2.5-2.8-4.3-3.6
							C-1.5,48.9-3,51.4-1.2,52.2L-1.2,52.2z"/>
					</g>
					<g>
						<path fill="#D17DB4" d="M23.1,25.7c3.7,0.9,8.7,6.2,12.4,2.5c2.9-2.9,3.1-8.8,3.5-12.6c0.2-1.9-2.8-1.9-3,0
							c-0.3,3.2-0.7,6.6-2.1,9.6c-1.6,3.4-7.5-1.8-10-2.4C22,22.4,21.2,25.3,23.1,25.7L23.1,25.7z"/>
					</g>
					<g>
						<path fill="#D17DB4" d="M9.9,92.4c2.1-0.7,5,0,7.2,0.2c3.3,0.3,6.7,0.7,10.1,0.3c7.5-0.9,6.4-7.1,2.9-12
							c-1.1-1.6-3.7-0.1-2.6,1.5c1,1.4,4.1,5.3,1.9,6.8c-1.8,1.2-4.7,0.9-6.7,0.8c-4.1-0.1-9.6-1.9-13.6-0.5
							C7.3,90.1,8.1,93,9.9,92.4L9.9,92.4z"/>
					</g>
					<g>
						<path fill="#D17DB4" d="M38.8,67.1c2.7,0,5.5,0.2,8.1-0.6c2.8-0.9,4.4-3.2,5.3-5.8c0.7-1.8-2.2-2.6-2.9-0.8
							c-1.8,4.8-6.3,4.2-10.6,4.2C36.9,64.1,36.9,67.1,38.8,67.1L38.8,67.1z"/>
					</g>
					<g>
						<path fill="#D17DB4" d="M-0.5,145.1c4.1-0.3,8.1,1.5,12.1,1.1c4.7-0.5,5.1-5.4,4.7-9.3c-0.2-1.9-3.2-1.9-3,0
							c0.2,1.7,0.6,4.2-0.6,5.7c-0.8,0.9-2.4,0.7-3.5,0.6c-3.3-0.3-6.4-1.3-9.7-1.1C-2.4,142.2-2.4,145.2-0.5,145.1L-0.5,145.1z"/>
					</g>
					<g>
						<path fill="#D17DB4" d="M36.7,116.5c-0.8,3.9,2.5,6.5,6.1,7c5,0.6,7.2-4.4,6.8-8.6c-0.2-1.9-3.2-1.9-3,0
							c0.2,2.5-0.2,5.6-3.3,5.6c-1.7,0-4.1-1.2-3.7-3.2C40,115.4,37.1,114.6,36.7,116.5L36.7,116.5z"/>
					</g>
					<g>
						<path fill="#D17DB4" d="M58.2,95.1c4.6-0.2,12.2,3.6,15.5-1.4c3.1-4.9,1.5-11.4,1.4-16.8c0-1.9-3-1.9-3,0
							c0.1,4.4,0.9,8.9-0.1,13.2c-1.3,5.8-9.7,1.8-13.8,2C56.3,92.2,56.2,95.2,58.2,95.1L58.2,95.1z"/>
					</g>
					<g>
						<path fill="#D17DB4" d="M24.8,162.4c3.3,0,7.4,1.1,10.5-0.2c3.8-1.6,3.7-6.6,3.6-10c0-1.9-3-1.9-3,0c0.1,2.4,0.5,6.8-2.6,7.5
							c-2.7,0.5-5.8-0.3-8.6-0.3C22.9,159.5,22.9,162.5,24.8,162.4L24.8,162.4z"/>
					</g>
					<g>
						<path fill="#D17DB4" d="M60.8,136.4c4.1,0.1,7.8,1.7,11.1-1.7c2.9-3,1.3-7.8,2.4-11.4c0.5-1.9-2.4-2.7-2.9-0.8
							c-0.9,3,0.1,6.5-1.2,9.4c-1.5,3.5-6.5,1.6-9.4,1.5C58.9,133.4,58.9,136.4,60.8,136.4L60.8,136.4z"/>
					</g>
				</g>
			</g>
			<g>
				<path fill="#875999" d="M791.5,24.6c-11.7,7.9-24.2,9.6-35.5,18.7c-13.6,11-27.7,19.2-30.6,38.3c-4.4,30,6.8,60.7,32.8,77.3
					c22.1,14,55.1,19.2,78.3,7.5c24.4-12.4,36-37,35.9-65c-0.1-24.9,0.2-52.5-17.2-72.6C842,13.4,806.8,14.2,791.5,24.6z"/>
				<g>
					<g>
						<path fill="#D17DB4" d="M733.8,87.7c4,1.3,9.1,2.5,12.8-0.2c3.8-2.8,4-8.3,3.8-12.6c-0.1-1.9-3.1-1.9-3,0
							c0.2,3.3,0.4,8.1-2.6,10.2c-2.8,2-7.2,0.6-10.1-0.3C732.7,84.2,731.9,87.1,733.8,87.7L733.8,87.7z"/>
					</g>
					<g>
						<path fill="#D17DB4" d="M759.2,53c5.2-1.6,11.2,3,15.4-2c3.1-3.7,1.7-9.7,1.7-14.1c0-1.9-3-1.9-3,0c0,3.8,1.4,9.3-1.2,12.5
							c-1.8,2.1-5.5,0.9-7.8,0.5c-2-0.3-4-0.4-5.9,0.2C756.6,50.7,757.4,53.6,759.2,53L759.2,53z"/>
					</g>
					<g>
						<path fill="#D17DB4" d="M768.8,92.4c8.7,0.5,17.2-4.7,16.8-14.2c-0.1-1.9-3.1-1.9-3,0c0.3,7.9-6.7,11.6-13.8,11.2
							C766.9,89.3,766.9,92.3,768.8,92.4L768.8,92.4z"/>
					</g>
					<g>
						<path fill="#D17DB4" d="M798.8,52.2c4.3,1.9,6.4,8.9,12,7.8c5.2-1,3.1-9.7,4.7-13c0.8-1.7-1.8-3.3-2.6-1.5
							c-0.8,1.6-0.9,3.4-1.1,5.2c-0.1,1.6,0.1,5.7-1.8,6.4c-1.8,0.7-4.5-2.8-5.5-3.9c-1.3-1.3-2.5-2.8-4.3-3.6
							C798.5,48.9,797,51.4,798.8,52.2L798.8,52.2z"/>
					</g>
					<g>
						<path fill="#D17DB4" d="M740.2,135.8c3.6,0,8.6,0.7,11.8-1.6c3.4-2.4,3.1-7.7,3-11.3c0-1.9-3-1.9-3,0c0,2.6,0.6,7.4-2.1,9
							c-2.5,1.5-6.9,0.8-9.7,0.8C738.2,132.8,738.2,135.8,740.2,135.8L740.2,135.8z"/>
					</g>
					<g>
						<path fill="#D17DB4" d="M778.8,128.4c3.4,0,7.2-0.2,9.4-3.1c2.1-2.8,1.4-7.8,1.4-11.1c0-1.9-3-1.9-3,0c0,2.8,0.3,5.9-0.6,8.7
							c-0.9,2.8-5,2.5-7.3,2.5C776.9,125.4,776.9,128.4,778.8,128.4L778.8,128.4z"/>
					</g>
					<g>
						<path fill="#D17DB4" d="M761.8,160c2.9,2.9,6.6,6,10.7,7c5.3,1.3,6.3-4.1,5.9-8.1c-0.2-1.9-3.2-1.9-3,0
							c0.2,1.5,0.6,3.8-0.6,5.1c-0.7,0.7-2.5-0.2-3.2-0.5c-2.9-1.3-5.4-3.5-7.6-5.7C762.5,156.5,760.4,158.6,761.8,160L761.8,160z"
							/>
					</g>
					<g>
						<path fill="#D17DB4" d="M799.5,145.1c4.1-0.3,8.1,1.5,12.1,1.1c4.7-0.5,5.1-5.4,4.7-9.3c-0.2-1.9-3.2-1.9-3,0
							c0.2,1.7,0.6,4.2-0.6,5.7c-0.8,0.9-2.4,0.7-3.5,0.6c-3.3-0.3-6.4-1.3-9.7-1.1C797.6,142.2,797.6,145.2,799.5,145.1
							L799.5,145.1z"/>
					</g>
				</g>
			</g>
			<g>
				<path fill="#875999" d="M463.6,376.7c-7.9-11.7-9.6-24.2-18.7-35.5c-11-13.6-19.2-27.7-38.3-30.6c-30-4.4-60.7,6.8-77.3,32.8
					c-14,22.1-19.2,55.1-7.5,78.3c12.4,24.4,37,36,65,35.9c24.9-0.1,52.5,0.2,72.6-17.2C474.8,427.2,474,392,463.6,376.7z"/>
				<g>
					<g>
						<path fill="#F5D220" d="M400.5,318.9c-1.3,4-2.5,9.1,0.2,12.8c2.8,3.8,8.3,4,12.6,3.8c1.9-0.1,1.9-3.1,0-3
							c-3.3,0.2-8.1,0.4-10.2-2.6c-2-2.8-0.6-7.2,0.3-10.1C404,317.9,401.1,317.1,400.5,318.9L400.5,318.9z"/>
					</g>
					<g>
						<path fill="#F5D220" d="M435.2,344.4c1.6,5.2-3,11.2,2,15.4c3.7,3.1,9.7,1.7,14.1,1.7c1.9,0,1.9-3,0-3
							c-3.8,0-9.3,1.4-12.5-1.2c-2.1-1.8-0.9-5.5-0.5-7.8c0.3-2,0.4-4-0.2-5.9C437.5,341.7,434.6,342.5,435.2,344.4L435.2,344.4z"/>
					</g>
					<g>
						<path fill="#F5D220" d="M395.8,354c-0.5,8.7,4.7,17.2,14.2,16.8c1.9-0.1,1.9-3.1,0-3c-7.9,0.3-11.6-6.7-11.2-13.8
							C398.9,352.1,395.9,352.1,395.8,354L395.8,354z"/>
					</g>
					<g>
						<path fill="#F5D220" d="M436,383.9c-1.9,4.3-8.9,6.4-7.8,12c1,5.2,9.7,3.1,13,4.7c1.7,0.8,3.3-1.8,1.5-2.6
							c-1.6-0.8-3.4-0.9-5.2-1.1c-1.6-0.1-5.7,0.1-6.4-1.8c-0.7-1.8,2.8-4.5,3.9-5.5c1.3-1.3,2.8-2.5,3.6-4.3
							C439.4,383.7,436.8,382.1,436,383.9L436,383.9z"/>
					</g>
					<g>
						<path fill="#F5D220" d="M462.5,408.3c-0.9,3.7-6.2,8.7-2.5,12.4c2.9,2.9,8.8,3.1,12.6,3.5c1.9,0.2,1.9-2.8,0-3
							c-3.2-0.3-6.6-0.7-9.6-2.1c-3.4-1.6,1.8-7.5,2.4-10C465.9,407.2,463,406.4,462.5,408.3L462.5,408.3z"/>
					</g>
					<g>
						<path fill="#F5D220" d="M352.5,325.3c0,3.6-0.7,8.6,1.6,11.8c2.4,3.4,7.7,3.1,11.3,3c1.9,0,1.9-3,0-3c-2.6,0-7.4,0.6-9-2.1
							c-1.5-2.5-0.8-6.9-0.8-9.7C355.5,323.4,352.5,323.4,352.5,325.3L352.5,325.3z"/>
					</g>
					<g>
						<path fill="#F5D220" d="M359.8,364c0,3.4,0.2,7.2,3.1,9.4c2.8,2.1,7.8,1.4,11.1,1.4c1.9,0,1.9-3,0-3c-2.8,0-5.9,0.3-8.7-0.6
							c-2.8-0.9-2.5-5-2.5-7.3C362.8,362.1,359.8,362.1,359.8,364L359.8,364z"/>
					</g>
					<g>
						<path fill="#F5D220" d="M395.9,395.1c0.7,2.1,0,5-0.2,7.2c-0.3,3.3-0.7,6.7-0.3,10.1c0.9,7.5,7.1,6.4,12,2.9
							c1.6-1.1,0.1-3.7-1.5-2.6c-1.4,1-5.3,4.1-6.8,1.9c-1.2-1.8-0.9-4.7-0.8-6.7c0.1-4.1,1.9-9.6,0.5-13.6
							C398.1,392.4,395.2,393.2,395.9,395.1L395.9,395.1z"/>
					</g>
					<g>
						<path fill="#F5D220" d="M421.1,424c0,2.7-0.2,5.5,0.6,8.1c0.9,2.8,3.2,4.4,5.8,5.3c1.8,0.7,2.6-2.2,0.8-2.9
							c-4.8-1.8-4.2-6.3-4.2-10.6C424.1,422.1,421.1,422.1,421.1,424L421.1,424z"/>
					</g>
					<g>
						<path fill="#F5D220" d="M328.2,346.9c-2.9,2.9-6,6.6-7,10.7c-1.3,5.3,4.1,6.3,8.1,5.9c1.9-0.2,1.9-3.2,0-3
							c-1.5,0.2-3.8,0.6-5.1-0.6c-0.7-0.7,0.2-2.5,0.5-3.2c1.3-2.9,3.5-5.4,5.7-7.6C331.7,347.7,329.6,345.5,328.2,346.9
							L328.2,346.9z"/>
					</g>
					<g>
						<path fill="#F5D220" d="M343.1,384.7c0.3,4.1-1.5,8.1-1.1,12.1c0.5,4.7,5.4,5.1,9.3,4.7c1.9-0.2,1.9-3.2,0-3
							c-1.7,0.2-4.2,0.6-5.7-0.6c-0.9-0.8-0.7-2.4-0.6-3.5c0.3-3.3,1.3-6.4,1.1-9.7C346,382.7,343,382.7,343.1,384.7L343.1,384.7z"
							/>
					</g>
					<g>
						<path fill="#F5D220" d="M371.7,421.9c-3.9-0.8-6.5,2.5-7,6.1c-0.6,5,4.4,7.2,8.6,6.8c1.9-0.2,1.9-3.2,0-3
							c-2.5,0.2-5.6-0.2-5.6-3.3c0-1.7,1.2-4.1,3.2-3.7C372.8,425.1,373.6,422.3,371.7,421.9L371.7,421.9z"/>
					</g>
					<g>
						<path fill="#F5D220" d="M393.1,443.3c0.2,4.6-3.6,12.2,1.4,15.5c4.9,3.1,11.4,1.5,16.8,1.4c1.9,0,1.9-3,0-3
							c-4.4,0.1-8.9,0.9-13.2-0.1c-5.8-1.3-1.8-9.7-2-13.8C396.1,441.4,393.1,441.4,393.1,443.3L393.1,443.3z"/>
					</g>
					<g>
						<path fill="#F5D220" d="M325.8,410c0,3.3-1.1,7.4,0.2,10.5c1.6,3.8,6.6,3.7,10,3.6c1.9,0,1.9-3,0-3c-2.4,0.1-6.8,0.5-7.5-2.6
							c-0.5-2.7,0.3-5.8,0.3-8.6C328.8,408.1,325.8,408,325.8,410L325.8,410z"/>
					</g>
					<g>
						<path fill="#F5D220" d="M351.8,446c-0.1,4.1-1.7,7.8,1.7,11.1c3,2.9,7.8,1.3,11.4,2.4c1.9,0.5,2.7-2.4,0.8-2.9
							c-3-0.9-6.5,0.1-9.4-1.2c-3.5-1.5-1.6-6.5-1.5-9.4C354.9,444,351.9,444.1,351.8,446L351.8,446z"/>
					</g>
				</g>
			</g>
			<g>
				<path fill="#F5D220" d="M60.2,377.7c-26.8-5.6-58.8-1.8-72,25.9c-5.4,11.2-7.7,24.9-9.9,37.1c-2.1,11.4-3,23.4-7.2,34.2
					c-4.7,12.4-12.2,24.4-14.1,37.4c-1.9,12.5-2.9,25.2,6.7,34.4c6,5.8,16.3,12.1,24.8,13.2c18.8,2.4,38.1-2.4,56.3,1.2
					c17.4,3.4,33.2,13.2,51.3,13.4c17.9,0.1,38.7-3.5,50.3-18.6c11.7-15.2,21-34.4,14.6-53.5c-3.5-10.5-12-17.1-20.4-23.6
					c-8.8-6.8-16.2-12.4-24-20.3c-8.6-8.7-16.4-20.5-21.7-31.7C86.7,409.8,81.7,382.2,60.2,377.7z"/>
				<g>
					<path fill="#FFFFFF" d="M6.1,408.7c0.7-2.1-0.4-4.5-1.4-6.4c-0.6-1.1-2.1-1.5-3.2-1c-0.5-1.1-1.8-1.8-3-1.5
						c-1.9,0.6-4,1.5-5.1,3.3c-0.9,1.5-0.7,3.5,0.3,4.9c1.7,2.4,5,4.1,8,3.9C3.7,411.8,5.5,410.7,6.1,408.7z M1.4,407
						C1.4,407,1.4,407,1.4,407C1.4,407,1.4,407,1.4,407C1.4,407,1.4,407,1.4,407C1.4,407,1.4,407,1.4,407z M-2,405.5
						C-1.9,405.6-1.9,405.5-2,405.5L-2,405.5z M-0.4,406.5c-0.3-0.1-0.5-0.3-0.8-0.4c-0.1-0.1-0.3-0.2-0.4-0.3
						c-0.1-0.1-0.3-0.2-0.4-0.3c0.2-0.1,0.3-0.2,0.5-0.3c0.1-0.1,0.2-0.1,0.3-0.1c0.3-0.1,0.7-0.2,1.1-0.4c0.1,0,0.2-0.1,0.4-0.1
						c0,0.1,0.1,0.2,0.1,0.3c0.1,0.2,0.3,0.5,0.4,0.7c0,0.1,0.1,0.2,0.1,0.3c0.1,0.3,0.2,0.7,0.3,1c0,0-0.1,0-0.1,0c0,0,0,0-0.1,0
						c0,0-0.1,0-0.1,0c-0.3-0.1-0.6-0.1-0.9-0.2C-0.1,406.6-0.2,406.5-0.4,406.5z"/>
					<path fill="#FFFFFF" d="M26.3,386.1c0.1,0.2,0.2,0.4,0.4,0.5c0.3,0.3,0.6,0.4,1,0.6c1.6,1.3,3.4,2.4,5.5,2.7
						c0.8,0.1,1.9,0.1,2.4-0.6c1.8-2.4,2.6-4.9,1.7-7.9c-0.3-1.2-1.3-1.7-2.4-1.8c-2.4-0.3-4.7,0.5-6.5,1.9c-2.4-1.3-5.3,1.9-3,3.9
						C25.7,385.6,26,385.9,26.3,386.1z"/>
					<path fill="#FFFFFF" d="M62.4,385.6c-0.3,0.6-0.4,1.3-0.3,1.9c0.4,1.7,1.2,3.4,2.8,4.3c1.4,0.8,3.2,0.6,4.6-0.3
						c3.1-2.1,3.7-6.5,2.3-9.7c-1.3-3-4.9-4.4-7.5-2.2c-1.3,1.1-2.6,3.6-2.1,5.2C62.2,385.2,62.3,385.4,62.4,385.6z"/>
					<path fill="#FFFFFF" d="M30.5,409.3c-0.9-1-2.4-1.3-3.6-0.9c-1.5,0.4-2.5,1.9-3.1,3.3c-0.1,0.3-0.2,0.5-0.2,0.8
						c-0.1,0-0.2,0-0.3,0c-1.4,0.4-2,1.7-1.7,3.1c0.4,2.3,1.8,4.9,4.3,5.4c3,0.6,4.9-1.8,5.9-4.3C32.5,414.4,32.3,411.2,30.5,409.3z
						 M26.7,415.4c0,0-0.1,0.1-0.1,0.2c0-0.1-0.1-0.2-0.1-0.3c0.1,0,0.2-0.1,0.3-0.1C26.8,415.3,26.8,415.3,26.7,415.4z"/>
					<path fill="#FFFFFF" d="M57.9,412.1c0.5,0.2,1,0.2,1.5,0.1c1.4-0.5,3.1-1,3.8-2.5c0.7-1.6,0.3-3.1-0.4-4.7
						c-0.7-1.6-2.1-2.2-3.7-1.5c-0.7,0.3-1.4,0.8-1.9,1.3c-0.7,0.4-1.3,1.2-1.3,2c-0.3,0.7-0.5,1.4-0.6,2.1
						c-0.2,1.3,0.3,2.7,1.7,3.1C57.4,412.1,57.7,412.1,57.9,412.1z"/>
					<path fill="#FFFFFF" d="M18.1,441.1c-3.1,1.3-4.7,4.6-3.3,7.8c0.5,1.1,1.3,1.9,2.5,1.8c0.8,1.1,2.3,1.7,3.6,1.8
						c4.1,0.2,5.6-5,4.5-8.1C24.4,441.4,21,439.9,18.1,441.1z M20.6,447.6C20.6,447.6,20.6,447.6,20.6,447.6
						C20.5,447.7,20.5,447.7,20.6,447.6C20.5,447.7,20.6,447.7,20.6,447.6z"/>
					<path fill="#FFFFFF" d="M66,438.5c0.7-0.8,1.1-2.1,0.4-3c-0.9-1.2-1.8-2.1-3.2-2.6c-1-0.4-2.2-0.5-3.3-0.5
						c-1.4,0-2.5,1.1-2.5,2.5c0,0.2,0,0.3,0,0.5c-0.2,2.3,0.6,4.2,2.9,5.1C62.3,441.3,64.8,440.1,66,438.5z M62.3,436.2
						C62.3,436.2,62.3,436.2,62.3,436.2C62.3,436.2,62.3,436.2,62.3,436.2C62.3,436.2,62.3,436.2,62.3,436.2
						C62.3,436.2,62.3,436.2,62.3,436.2z"/>
					<path fill="#FFFFFF" d="M96.5,425.9c1.8-0.8,3-2.4,3.3-4.4c0.1-1.1-0.5-2.2-1.2-3.1c-0.8-0.9-2-1.5-3.1-1.9
						c-0.1,0-0.2-0.1-0.3-0.1c-1-0.3-2.1,0.1-2.7,1c-0.2-0.1-0.4-0.2-0.7-0.3c-1.2-0.3-2.8,0.4-3.1,1.7c-0.5,2.6-0.3,5.3,2,7
						C92.5,427.1,94.8,426.7,96.5,425.9z M93.5,421.6C93.4,421.5,93.4,421.5,93.5,421.6L93.5,421.6z M95.1,422.1
						C95.1,422.1,95.1,422.1,95.1,422.1L95.1,422.1z M94.2,421.5C94.2,421.5,94.2,421.5,94.2,421.5
						C94.2,421.5,94.2,421.5,94.2,421.5c-0.1,0.1-0.2,0.1-0.3,0.1c-0.1,0-0.1,0-0.2,0c0,0-0.1,0-0.1,0c0,0,0,0,0,0c0,0,0-0.1,0-0.1
						c0-0.1,0-0.2,0-0.3c0.1,0.1,0.2,0.1,0.3,0.1C93.9,421.4,94.1,421.4,94.2,421.5z"/>
					<path fill="#FFFFFF" d="M49.2,467.8c-3.4-0.1-5.5,3.3-5.2,6.4c0.1,1.4,1,2.5,2.5,2.5c0.8,0,1.7-0.5,2.2-1.2
						c0.8,0.4,1.7,0.6,2.6,0.5c1.1,0,2.1-0.8,2.4-1.8C54.6,471,52.7,467.9,49.2,467.8z"/>
					<path fill="#FFFFFF" d="M102.4,451.1c2.4-3,1.9-7.1-0.5-10c-2.1-2.6-5.3-1.8-7.1,0.7c-1.5,2.1-2.3,5.2-2.1,7.8
						c0.1,1.3,1,2.4,2.3,2.5C97.3,453.6,100.4,453.5,102.4,451.1z M98.9,447.3c-0.2,0.4-0.2,0.4-0.4,0.6c-0.2,0.2-0.2,0.2-0.3,0.2
						c0,0-0.1,0-0.1,0c0,0,0,0-0.1,0c0,0,0,0,0.1,0c0,0,0,0,0,0c-0.1-0.1-0.2-0.1-0.4-0.2c0.1-0.7,0.3-1.4,0.6-2.3
						c-0.1,0.2,0.1-0.2,0.2-0.5c0.1,0.2,0.1,0.3,0.2,0.5C99,446.3,99.1,446.9,98.9,447.3z M99.2,444.3
						C99.2,444.3,99.2,444.3,99.2,444.3C99.2,444.3,99.2,444.3,99.2,444.3C99.2,444.3,99.2,444.3,99.2,444.3z"/>
					<path fill="#FFFFFF" d="M98.1,448.2C98.1,448.2,98.1,448.2,98.1,448.2c0.1,0,0.1,0,0.2,0C98.2,448.1,98.2,448.1,98.1,448.2z"/>
					<path fill="#FFFFFF" d="M8.2,506.6c-1.2,0.4-2,1-2.5,1.9c-1,0.3-1.8,1.3-1.7,2.3c0,0.1-0.1,0.2-0.1,0.3
						c-0.2,0.4-0.3,0.9-0.2,1.3c0.2,1.9,1.7,2.8,3.4,3.3c1.2,0.3,2.2-0.2,2.8-1.1c0.6-0.9,1.1-1.6,1.5-2.6c0.4-1.2,0.2-2.5,0-3.7
						C11.1,507.1,9.4,506.2,8.2,506.6z"/>
					<path fill="#FFFFFF" d="M37.9,504.6c-1.7-0.3-3.5-0.2-4.9,1.1c-1,1-1.4,2.5-1.6,3.8c-0.2,1.3,0.3,2.7,1.7,3.1
						c1,0.3,2.2-0.2,2.8-1c1.1,0.3,2.2,0.1,3.1-0.8C41.1,509.1,40.9,505.2,37.9,504.6z"/>
					<path fill="#FFFFFF" d="M83.8,489.3c-1.6-1.1-4.7-1.9-6-0.2c-0.3,0.4-0.6,0.9-0.8,1.3c-1.2,0.1-2.5,1.2-2.3,2.5
						c0.4,3.3,1.6,7,5.4,7.4c2.4,0.2,4.7-1.6,5.6-3.6C87,493.9,86.4,491,83.8,489.3z M81.3,493.6C81.3,493.6,81.3,493.6,81.3,493.6
						C81.3,493.5,81.3,493.5,81.3,493.6z M81.4,493.7C81.4,493.7,81.4,493.7,81.4,493.7C81.4,493.7,81.4,493.7,81.4,493.7
						C81.4,493.7,81.4,493.7,81.4,493.7C81.4,493.7,81.4,493.7,81.4,493.7z M81,494.8c0,0-0.1,0.1-0.2,0.2c0-0.5,0-1,0.2-1.4
						c0.1,0,0.2,0.1,0.2,0.1c0,0,0,0,0,0c0,0,0,0,0.1,0.1c0,0,0,0,0,0.1c0,0,0,0,0,0c0,0.1,0,0.1,0,0.2c0,0.1,0,0.2-0.1,0.3
						c0,0,0,0,0,0c0,0.1-0.1,0.1-0.1,0.2C81.1,494.6,81.1,494.7,81,494.8z M81.2,494.5C81.2,494.5,81.2,494.5,81.2,494.5L81.2,494.5
						z M81.4,494C81.4,494,81.4,494,81.4,494C81.5,494.1,81.5,494.1,81.4,494z"/>
					<path fill="#FFFFFF" d="M107.9,481.1c2.9,2.1,7.2,2,9.1-1.3c0.9-1.5,0.9-3.2,0.2-4.8c-0.7-1.6-2.5-2.6-4.1-3
						c-1.1-0.2-2.2,0.1-2.8,1.1c-0.6,1-0.9,2.1-0.9,3.3c-0.9,0-1.9,0.5-2.3,1.3C106.3,478.9,106.8,480.3,107.9,481.1z"/>
					<path fill="#FFFFFF" d="M23.7,540.1c-0.4-1.3-1.6-1.8-2.9-2c-1.5-0.2-2.7,0.7-3.5,1.8c-1.2,0.3-2.3,1.4-1.9,3
						c0.5,2,1.2,3.7,3.1,4.6c1,0.5,2.2,0.5,3-0.4c0.7-0.7,1.4-1.4,1.9-2.3c0.7-1,0.7-2.2,0.5-3.4C24,541,23.8,540.6,23.7,540.1z"/>
					<path fill="#FFFFFF" d="M73.1,540.3c1.2-1.2,1.6-2.8,1.7-4.4c0.2-2.5-2.4-3.9-4.6-4.3c-1.1-0.2-2.1-0.1-3,0.2
						c-1.1-1.6-3.9-1.8-4.5,0.6c-0.4,1.5-0.4,3-0.1,4.3c-0.2,0.6-0.4,1.1-0.6,1.7c-0.7,2.4,2,3.7,3.7,2.8
						C68.1,542.5,71.3,542.1,73.1,540.3z M69.7,536.5c-0.1,0.2-0.2,0.3-0.3,0.4c0.1-0.1-0.2,0-0.2,0.1c-0.2,0-0.2,0-0.4,0
						c-0.2,0-0.4-0.1-0.6-0.2c0,0,0.1-0.1,0.1-0.1C68.8,536.3,69.2,536.3,69.7,536.5z"/>
					<path fill="#FFFFFF" d="M108.5,510.3c-1.9,2.5-1.5,6.4,1,8.4c1.1,0.8,2.4,1,3.5,0.1c1.3,0,2.8-0.9,3.7-1.7
						c2.2-2,2.6-5.6,0.5-7.8C114.7,506.7,110.4,507.7,108.5,510.3z"/>
					<path fill="#FFFFFF" d="M158.4,488.2c-0.5-2.1-2.6-3.5-4.7-3.8c-1.1-0.2-2.1-0.2-3,0.6c-0.7,0.7-1.2,1.8-1.5,2.7
						c-0.6,1.7-0.7,3.4-0.4,5.2c0.2,1.4,1.9,2.1,3.1,1.7c0.4-0.1,0.7-0.3,0.9-0.5c1.2,0.2,2.4,0.1,3.5-0.6
						C158.2,492.6,158.9,490.3,158.4,488.2z"/>
					<path fill="#FFFFFF" d="M151,520.1c0.1-1.3-1.3-2.3-2.5-2.3c-0.9,0-1.6,0.4-2,1.1c-0.2,0.1-0.3,0.2-0.4,0.3
						c-0.7,0.7-0.8,1.6-0.6,2.4c-0.1,0.3-0.1,0.5-0.1,0.8c-0.2,1.9,1.6,3,3.2,3.5c1.1,0.4,2.2-0.3,2.8-1.1c0.9-1.3,1.2-3.1,0-4.4
						C151.3,520.3,151.1,520.2,151,520.1z M150.4,522.7C150.4,523.1,150.3,522.9,150.4,522.7L150.4,522.7z"/>
					<path fill="#FFFFFF" d="M99.7,536c-0.9,1.3-1.6,2.6-2.2,4.1c-0.9,0.5-1.4,1.4-1.6,2.3c-0.4,2.3,1.6,5.5,4.3,4.8
						c2.2-0.6,3.7-2.9,4.4-4.9c0.7-2.1,0.2-4.4-0.7-6.3C103.2,534.1,100.7,534.6,99.7,536z"/>
					<path fill="#FFFFFF" d="M130.5,550.6c-2.7-1.1-5.7,0.1-7.7,1.9c-1.5,1.3-0.7,3.2,0.7,3.9c0.2,1.8,0.9,3.5,2.2,4.7
						c1,1,2.6,1.5,4,1c1.9-0.6,3-2.4,3.7-4.2C134.5,555,133.5,551.9,130.5,550.6z M128.4,556.1c0-0.2-0.1-0.3-0.1-0.5
						c0,0,0-0.1,0-0.1c0,0,0-0.1,0-0.2c0.1,0,0.2,0,0.2,0c0.1,0,0.2,0.1,0.3,0.1c0,0.1,0,0.1,0,0.2c0,0,0,0.1,0,0.2
						c-0.1,0.2-0.1,0.5-0.3,0.7C128.5,556.4,128.5,556.2,128.4,556.1z M128.8,555.3C128.8,555.3,128.8,555.2,128.8,555.3
						C128.8,555.2,128.8,555.2,128.8,555.3C128.8,555.3,128.8,555.3,128.8,555.3z M129,557.5C129,557.5,129,557.5,129,557.5
						C129.1,557.5,129.1,557.5,129,557.5C129.1,557.5,129.1,557.5,129,557.5z"/>
					<path fill="#FFFFFF" d="M79.7,565c-0.1-0.2-0.4-0.7-0.1-0.1c-0.5-1.3-1.6-2.1-3.1-1.7c-0.1,0-0.2,0.1-0.3,0.1
						c-0.5-0.2-1.1-0.3-1.7-0.1c-1.3,0.4-2.1,1.8-1.7,3.1c0.3,1,0.4,1.9,0.8,2.8c0.6,1.4,2,2,3.4,2.1c1.2,0.1,2.3-0.1,3-1.2
						c0.5-0.8,0.8-1.6,0.8-2.5c0-0.7-0.2-1.4-0.6-2C80.1,565.5,79.9,565.2,79.7,565z M76,568.3C76,568.3,76,568.3,76,568.3
						c0,0,0.1,0.1,0.1,0.2C76,568.4,76,568.3,76,568.3z"/>
				</g>
			</g>
			<g>
				<path fill="#F5D220" d="M860.2,377.7c-26.8-5.6-58.8-1.8-72,25.9c-5.4,11.2-7.7,24.9-9.9,37.1c-2.1,11.4-3,23.4-7.2,34.2
					c-4.7,12.4-12.2,24.4-14.1,37.4c-1.9,12.5-2.9,25.2,6.7,34.4c6,5.8,16.3,12.1,24.8,13.2c18.8,2.4,38.1-2.4,56.3,1.2
					c17.4,3.4,33.2,13.2,51.3,13.4c17.9,0.1,38.7-3.5,50.3-18.6c11.7-15.2,21-34.4,14.6-53.5c-3.5-10.5-12-17.1-20.4-23.6
					c-8.8-6.8-16.2-12.4-24-20.3c-8.6-8.7-16.4-20.5-21.7-31.7C886.7,409.8,881.7,382.2,860.2,377.7z"/>
				<g>
					<path fill="#FFFFFF" d="M806.1,408.7c0.7-2.1-0.4-4.5-1.4-6.4c-0.6-1.1-2.1-1.5-3.2-1c-0.5-1.1-1.8-1.8-3-1.5
						c-1.9,0.6-4,1.5-5.1,3.3c-0.9,1.5-0.7,3.5,0.3,4.9c1.7,2.4,5,4.1,8,3.9C803.7,411.8,805.5,410.7,806.1,408.7z M801.4,407
						C801.4,407,801.4,407,801.4,407C801.4,407,801.4,407,801.4,407C801.4,407,801.4,407,801.4,407C801.4,407,801.4,407,801.4,407z
						 M798,405.5C798.1,405.6,798.1,405.5,798,405.5L798,405.5z M799.6,406.5c-0.3-0.1-0.5-0.3-0.8-0.4c-0.1-0.1-0.3-0.2-0.4-0.3
						c-0.1-0.1-0.3-0.2-0.4-0.3c0.2-0.1,0.3-0.2,0.5-0.3c0.1-0.1,0.2-0.1,0.3-0.1c0.3-0.1,0.7-0.2,1.1-0.4c0.1,0,0.2-0.1,0.4-0.1
						c0,0.1,0.1,0.2,0.1,0.3c0.1,0.2,0.3,0.5,0.4,0.7c0,0.1,0.1,0.2,0.1,0.3c0.1,0.3,0.2,0.7,0.3,1c0,0-0.1,0-0.1,0c0,0,0,0-0.1,0
						c0,0-0.1,0-0.1,0c-0.3-0.1-0.6-0.1-0.9-0.2C799.9,406.6,799.8,406.5,799.6,406.5z"/>
					<path fill="#FFFFFF" d="M791.9,445.6c0.8-2.2,0.3-4.9-1-6.9c-0.2-1.6-1.9-3-3.7-1.9c-3.3,2-7,9.6-2.5,12.1
						C787.7,450.5,790.9,448.5,791.9,445.6z M786.9,444.4C786.9,444.4,786.9,444.4,786.9,444.4C786.7,444.4,786.7,444.4,786.9,444.4
						z M787,444.4C787,444.4,787,444.4,787,444.4C786.8,444.6,786.9,444.5,787,444.4z"/>
					<path fill="#FFFFFF" d="M796.8,472.1c1.5-1.4,1-4.5-1.6-4.4c-3,0.1-5.7,2.4-6.9,5c-1.2,2.8-0.5,6.5,2.6,7.9
						c2.6,1.1,5.5,0.3,7.1-2C799.6,476.3,798.7,473.8,796.8,472.1z M792.7,475.8c0,0,0-0.4-0.1-0.2c0-0.1,0-0.2,0.1-0.3
						c0.2,0.2,0.3,0.3,0.6,0.5c0.3,0.2,0.3,0.1,0.4,0.3c0,0,0,0,0,0c-0.1,0-0.1,0.1-0.2,0.1c0,0,0,0-0.1,0c-0.1,0-0.1,0-0.1,0
						c0,0,0,0-0.1,0c-0.1,0-0.1,0-0.1,0C792.9,476.1,792.8,476,792.7,475.8z M793.9,476.2C793.9,476.3,793.9,476.4,793.9,476.2
						L793.9,476.2z"/>
					<path fill="#FFFFFF" d="M765.8,501.5c-0.9-0.6-2.1-0.7-3,0.3c-1.6,1.8-2.9,4.1-2.6,6.6c0.3,2.8,2.3,4.6,5,5.4
						c1.1,0.3,2.2-0.2,2.8-1.1c1.8-2.7,2-6,1.8-9.1C769.5,501.4,767.2,500.7,765.8,501.5z"/>
					<path fill="#FFFFFF" d="M778.5,531.1c-1.9,0-2.7,1.8-2.3,3.2c-1.2,0.9-2,2.2-1.5,4c0.5,1.9,2.5,3.5,4.4,3.9
						c3.2,0.7,4.9-2.6,4.9-5.4C784,533.8,781.7,531.1,778.5,531.1z"/>
				</g>
			</g>
			<g>
				<path fill="#D17DB4" d="M377.8,256.4c26.8,5.6,58.8,1.8,72-25.9c5.4-11.2,7.7-24.9,9.9-37.1c2.1-11.4,3-23.4,7.2-34.2
					c4.7-12.4,12.2-24.4,14.1-37.4c1.9-12.5,2.9-25.2-6.7-34.4c-6-5.8-16.3-12.1-24.8-13.2c-18.8-2.4-38.1,2.4-56.3-1.2
					c-17.4-3.4-33.2-13.2-51.3-13.4c-17.9-0.1-38.7,3.5-50.3,18.6c-11.7,15.2-21,34.4-14.6,53.5c3.5,10.5,12,17.1,20.4,23.6
					c8.8,6.8,16.2,12.4,24,20.3c8.6,8.7,16.4,20.5,21.7,31.7C351.4,224.2,356.4,251.8,377.8,256.4z"/>
				<g>
					<path fill="#875999" d="M432,225.4c-0.7,2.1,0.4,4.5,1.4,6.4c0.6,1.1,2.1,1.5,3.2,1c0.5,1.1,1.8,1.8,3,1.5
						c1.9-0.6,4-1.5,5.1-3.3c0.9-1.5,0.7-3.5-0.3-4.9c-1.7-2.4-5-4.1-8-3.9C434.3,222.3,432.6,223.4,432,225.4z M436.6,227.1
						C436.6,227.1,436.6,227.1,436.6,227.1C436.6,227.1,436.6,227.1,436.6,227.1C436.6,227.1,436.6,227.1,436.6,227.1
						C436.6,227.1,436.6,227.1,436.6,227.1z M440,228.6C440,228.5,440,228.5,440,228.6L440,228.6z M438.4,227.6
						c0.3,0.1,0.5,0.3,0.8,0.4c0.1,0.1,0.3,0.2,0.4,0.3c0.1,0.1,0.3,0.2,0.4,0.3c-0.2,0.1-0.3,0.2-0.5,0.3c-0.1,0.1-0.2,0.1-0.3,0.1
						c-0.3,0.1-0.7,0.2-1.1,0.4c-0.1,0-0.2,0.1-0.4,0.1c0-0.1-0.1-0.2-0.1-0.3c-0.1-0.2-0.3-0.5-0.4-0.7c0-0.1-0.1-0.2-0.1-0.3
						c-0.1-0.3-0.2-0.7-0.3-1c0,0,0.1,0,0.1,0c0,0,0,0,0.1,0c0,0,0.1,0,0.1,0c0.3,0.1,0.6,0.1,0.9,0.2
						C438.2,227.5,438.3,227.5,438.4,227.6z"/>
					<path fill="#875999" d="M411.7,247.9c-0.1-0.2-0.2-0.4-0.4-0.5c-0.3-0.3-0.6-0.4-1-0.6c-1.6-1.3-3.4-2.4-5.5-2.7
						c-0.8-0.1-1.9-0.1-2.4,0.6c-1.8,2.4-2.6,4.9-1.7,7.9c0.3,1.2,1.3,1.7,2.4,1.8c2.4,0.3,4.7-0.5,6.5-1.9c2.4,1.3,5.3-1.9,3-3.9
						C412.3,248.5,412,248.2,411.7,247.9z"/>
					<path fill="#875999" d="M375.7,248.4c0.3-0.6,0.4-1.3,0.3-1.9c-0.4-1.7-1.2-3.4-2.8-4.3c-1.4-0.8-3.2-0.6-4.6,0.3
						c-3.1,2.1-3.7,6.5-2.3,9.7c1.3,3,4.9,4.4,7.5,2.2c1.3-1.1,2.6-3.6,2.1-5.2C375.9,248.9,375.8,248.7,375.7,248.4z"/>
					<path fill="#875999" d="M407.6,224.8c0.9,1,2.4,1.3,3.6,0.9c1.5-0.4,2.5-1.9,3.1-3.3c0.1-0.3,0.2-0.5,0.2-0.8
						c0.1,0,0.2,0,0.3,0c1.4-0.4,2-1.7,1.7-3.1c-0.4-2.3-1.8-4.9-4.3-5.4c-3-0.6-4.9,1.8-5.9,4.3
						C405.5,219.7,405.7,222.9,407.6,224.8z M411.3,218.7c0,0,0.1-0.1,0.1-0.2c0,0.1,0.1,0.2,0.1,0.3c-0.1,0-0.2,0.1-0.3,0.1
						C411.3,218.8,411.3,218.7,411.3,218.7z"/>
					<path fill="#875999" d="M380.2,222c-0.5-0.2-1-0.2-1.5-0.1c-1.4,0.5-3.1,1-3.8,2.5c-0.7,1.6-0.3,3.1,0.4,4.7
						c0.7,1.6,2.1,2.2,3.7,1.5c0.7-0.3,1.4-0.8,1.9-1.3c0.7-0.4,1.3-1.2,1.3-2c0.3-0.7,0.5-1.4,0.6-2.1c0.2-1.3-0.3-2.7-1.7-3.1
						C380.6,222,380.4,222,380.2,222z"/>
					<path fill="#875999" d="M446.1,188.5c-0.8,2.2-0.3,4.9,1,6.9c0.2,1.6,1.9,3,3.7,1.9c3.3-2,7-9.6,2.5-12.1
						C450.3,183.6,447.2,185.6,446.1,188.5z M451.2,189.7C451.2,189.7,451.2,189.7,451.2,189.7C451.4,189.7,451.4,189.7,451.2,189.7
						z M451.1,189.7C451.1,189.7,451.1,189.7,451.1,189.7C451.3,189.5,451.2,189.6,451.1,189.7z"/>
					<path fill="#875999" d="M419.9,193c3.1-1.3,4.7-4.6,3.3-7.8c-0.5-1.1-1.3-1.9-2.5-1.8c-0.8-1.1-2.3-1.7-3.6-1.8
						c-4.1-0.2-5.6,5-4.5,8.1C413.7,192.6,417,194.2,419.9,193z M417.5,186.5C417.5,186.5,417.5,186.4,417.5,186.5
						C417.5,186.4,417.5,186.4,417.5,186.5C417.5,186.4,417.5,186.4,417.5,186.5z"/>
					<path fill="#875999" d="M372.1,195.5c-0.7,0.8-1.1,2.1-0.4,3c0.9,1.2,1.8,2.1,3.2,2.6c1,0.4,2.2,0.5,3.3,0.5
						c1.4,0,2.5-1.1,2.5-2.5c0-0.2,0-0.3,0-0.5c0.2-2.3-0.6-4.2-2.9-5.1C375.8,192.8,373.3,194,372.1,195.5z M375.8,197.9
						C375.8,197.9,375.8,197.9,375.8,197.9C375.8,197.9,375.8,197.9,375.8,197.9C375.8,197.9,375.8,197.9,375.8,197.9
						C375.8,197.9,375.8,197.9,375.8,197.9z"/>
					<path fill="#875999" d="M341.5,208.1c-1.8,0.8-3,2.4-3.3,4.4c-0.1,1.1,0.5,2.2,1.2,3.1c0.8,0.9,2,1.5,3.1,1.9
						c0.1,0,0.2,0.1,0.3,0.1c1,0.3,2.1-0.1,2.7-1c0.2,0.1,0.4,0.2,0.7,0.3c1.2,0.3,2.8-0.4,3.1-1.7c0.5-2.6,0.3-5.3-2-7
						C345.6,207,343.3,207.4,341.5,208.1z M344.6,212.5C344.7,212.6,344.7,212.6,344.6,212.5L344.6,212.5z M343,212
						C342.9,212,342.9,211.9,343,212L343,212z M343.8,212.6C343.8,212.6,343.8,212.6,343.8,212.6
						C343.8,212.6,343.9,212.6,343.8,212.6c0.1-0.1,0.2-0.1,0.3-0.1c0.1,0,0.1,0,0.2,0c0,0,0.1,0,0.1,0c0,0,0,0,0,0c0,0,0,0.1,0,0.1
						c0,0.1,0,0.2,0,0.3c-0.1-0.1-0.2-0.1-0.3-0.1C344.1,212.7,344,212.7,343.8,212.6z"/>
					<path fill="#875999" d="M441.3,162c-1.5,1.4-1,4.5,1.6,4.4c3-0.1,5.7-2.4,6.9-5c1.2-2.8,0.5-6.5-2.6-7.9
						c-2.6-1.1-5.5-0.3-7.1,2C438.4,157.7,439.4,160.3,441.3,162z M445.4,158.3c0,0,0,0.4,0.1,0.2c0,0.1,0,0.2-0.1,0.3
						c-0.2-0.2-0.3-0.3-0.6-0.5c-0.3-0.2-0.3-0.1-0.4-0.3c0,0,0,0,0,0c0.1,0,0.1-0.1,0.2-0.1c0,0,0,0,0.1,0c0.1,0,0.1,0,0.1,0
						c0,0,0,0,0.1,0c0.1,0,0.1,0,0.1,0C445.1,158,445.3,158.1,445.4,158.3z M444.2,157.9C444.1,157.8,444.1,157.7,444.2,157.9
						L444.2,157.9z"/>
					<path fill="#875999" d="M388.8,166.3c3.4,0.1,5.5-3.3,5.2-6.4c-0.1-1.4-1-2.5-2.5-2.5c-0.8,0-1.7,0.5-2.2,1.2
						c-0.8-0.4-1.7-0.6-2.6-0.5c-1.1,0-2.1,0.8-2.4,1.8C383.5,163,385.4,166.2,388.8,166.3z"/>
					<path fill="#875999" d="M335.7,183c-2.4,3-1.9,7.1,0.5,10c2.1,2.6,5.3,1.8,7.1-0.7c1.5-2.1,2.3-5.2,2.1-7.8
						c-0.1-1.3-1-2.4-2.3-2.5C340.8,180.5,337.7,180.6,335.7,183z M339.2,186.8c0.2-0.4,0.2-0.4,0.4-0.6c0.2-0.2,0.2-0.2,0.3-0.2
						c0,0,0.1,0,0.1,0c0,0,0,0,0.1,0c0,0,0,0-0.1,0c0,0,0,0,0,0c0.1,0.1,0.2,0.1,0.4,0.2c-0.1,0.7-0.3,1.4-0.6,2.3
						c0.1-0.2-0.1,0.2-0.2,0.5c-0.1-0.2-0.1-0.3-0.2-0.5C339,187.8,339,187.2,339.2,186.8z M338.9,189.8
						C338.9,189.8,338.9,189.8,338.9,189.8C338.9,189.8,338.9,189.8,338.9,189.8C338.9,189.8,338.9,189.8,338.9,189.8z"/>
					<path fill="#875999" d="M340,185.9C340,185.9,340,185.9,340,185.9c-0.1,0-0.1,0-0.2,0C339.8,186,339.9,185.9,340,185.9z"/>
					<path fill="#875999" d="M472.3,132.6c0.9,0.6,2.1,0.7,3-0.3c1.6-1.8,2.9-4.1,2.6-6.6c-0.3-2.8-2.3-4.6-5-5.4
						c-1.1-0.3-2.2,0.2-2.8,1.1c-1.8,2.7-2,6-1.8,9.1C468.6,132.6,470.9,133.4,472.3,132.6z"/>
					<path fill="#875999" d="M429.8,127.5c1.2-0.4,2-1,2.5-1.9c1-0.3,1.8-1.3,1.7-2.3c0-0.1,0.1-0.2,0.1-0.3
						c0.2-0.4,0.3-0.9,0.2-1.3c-0.2-1.9-1.7-2.8-3.4-3.3c-1.2-0.3-2.2,0.2-2.8,1.1c-0.6,0.9-1.1,1.6-1.5,2.6c-0.4,1.2-0.2,2.5,0,3.7
						C427,127,428.6,127.9,429.8,127.5z"/>
					<path fill="#875999" d="M400.2,129.4c1.7,0.3,3.5,0.2,4.9-1.1c1-1,1.4-2.5,1.6-3.8c0.2-1.3-0.3-2.7-1.7-3.1
						c-1-0.3-2.2,0.2-2.8,1c-1.1-0.3-2.2-0.1-3.1,0.8C397,125,397.2,128.9,400.2,129.4z"/>
					<path fill="#875999" d="M354.2,144.8c1.6,1.1,4.7,1.9,6,0.2c0.3-0.4,0.6-0.9,0.8-1.3c1.2-0.1,2.5-1.2,2.3-2.5
						c-0.4-3.3-1.6-7-5.4-7.4c-2.4-0.2-4.7,1.6-5.6,3.6C351.1,140.1,351.7,143.1,354.2,144.8z M356.7,140.5
						C356.7,140.5,356.7,140.5,356.7,140.5C356.8,140.6,356.8,140.6,356.7,140.5z M356.7,140.4C356.7,140.4,356.7,140.4,356.7,140.4
						C356.7,140.4,356.7,140.4,356.7,140.4C356.7,140.4,356.7,140.4,356.7,140.4C356.7,140.4,356.7,140.4,356.7,140.4z M357,139.3
						c0,0,0.1-0.1,0.2-0.2c0,0.5,0,1-0.2,1.4c-0.1,0-0.2-0.1-0.2-0.1c0,0,0,0,0,0c0,0,0,0-0.1-0.1c0,0,0,0,0-0.1c0,0,0,0,0,0
						c0-0.1,0-0.1,0-0.2c0-0.1,0-0.2,0.1-0.3c0,0,0,0,0,0c0-0.1,0.1-0.1,0.1-0.2C356.9,139.5,357,139.4,357,139.3z M356.8,139.6
						C356.8,139.6,356.8,139.6,356.8,139.6L356.8,139.6z M356.6,140.1C356.6,140.1,356.6,140.1,356.6,140.1
						C356.6,140,356.6,139.9,356.6,140.1z"/>
					<path fill="#875999" d="M330.1,153c-2.9-2.1-7.2-2-9.1,1.3c-0.9,1.5-0.9,3.2-0.2,4.8c0.7,1.6,2.5,2.6,4.1,3
						c1.1,0.2,2.2-0.1,2.8-1.1c0.6-1,0.9-2.1,0.9-3.3c0.9,0,1.9-0.5,2.3-1.3C331.8,155.2,331.2,153.8,330.1,153z"/>
					<path fill="#875999" d="M459.5,103c1.9,0,2.7-1.8,2.3-3.2c1.2-0.9,2-2.2,1.5-4c-0.5-1.9-2.5-3.5-4.4-3.9
						c-3.2-0.7-4.9,2.6-4.9,5.4C454,100.3,456.4,103,459.5,103z"/>
					<path fill="#875999" d="M414.4,94c0.4,1.3,1.6,1.8,2.9,2c1.5,0.2,2.7-0.7,3.5-1.8c1.2-0.3,2.3-1.4,1.9-3
						c-0.5-2-1.2-3.7-3.1-4.6c-1-0.5-2.2-0.5-3,0.4c-0.7,0.7-1.4,1.4-1.9,2.3c-0.7,1-0.7,2.2-0.5,3.4C414.1,93,414.2,93.5,414.4,94z
						"/>
					<path fill="#875999" d="M364.9,93.8c-1.2,1.2-1.6,2.8-1.7,4.4c-0.2,2.5,2.4,3.9,4.6,4.3c1.1,0.2,2.1,0.1,3-0.2
						c1.1,1.6,3.9,1.8,4.5-0.6c0.4-1.5,0.4-3,0.1-4.3c0.2-0.6,0.4-1.1,0.6-1.7c0.7-2.4-2-3.7-3.7-2.8C370,91.6,366.8,92,364.9,93.8z
						 M368.4,97.6c0.1-0.2,0.2-0.3,0.3-0.4c-0.1,0.1,0.2,0,0.2-0.1c0.2,0,0.2,0,0.4,0c0.2,0,0.4,0.1,0.6,0.2c0,0-0.1,0.1-0.1,0.1
						C369.3,97.8,368.8,97.8,368.4,97.6z"/>
					<path fill="#875999" d="M329.6,123.8c1.9-2.5,1.5-6.4-1-8.4c-1.1-0.8-2.4-1-3.5-0.1c-1.3,0-2.8,0.9-3.7,1.7
						c-2.2,2-2.6,5.6-0.5,7.8C323.3,127.4,327.7,126.3,329.6,123.8z"/>
					<path fill="#875999" d="M279.7,145.8c0.5,2.1,2.6,3.5,4.7,3.8c1.1,0.2,2.1,0.2,3-0.6c0.7-0.7,1.2-1.8,1.5-2.7
						c0.6-1.7,0.7-3.4,0.4-5.2c-0.2-1.4-1.9-2.1-3.1-1.7c-0.4,0.1-0.7,0.3-0.9,0.5c-1.2-0.2-2.4-0.1-3.5,0.6
						C279.9,141.5,279.1,143.8,279.7,145.8z"/>
					<path fill="#875999" d="M287,114c-0.1,1.3,1.3,2.3,2.5,2.3c0.9,0,1.6-0.4,2-1.1c0.2-0.1,0.3-0.2,0.4-0.3
						c0.7-0.7,0.8-1.6,0.6-2.4c0.1-0.3,0.1-0.5,0.1-0.8c0.2-1.9-1.6-3-3.2-3.5c-1.1-0.4-2.2,0.3-2.8,1.1c-0.9,1.3-1.2,3.1,0,4.4
						C286.8,113.8,286.9,113.9,287,114z M287.7,111.4C287.7,111,287.7,111.2,287.7,111.4L287.7,111.4z"/>
					<path fill="#875999" d="M338.3,98.1c0.9-1.3,1.6-2.6,2.2-4.1c0.9-0.5,1.4-1.4,1.6-2.3c0.4-2.3-1.6-5.5-4.3-4.8
						c-2.2,0.6-3.7,2.9-4.4,4.9c-0.7,2.1-0.2,4.4,0.7,6.3C334.9,100,337.3,99.5,338.3,98.1z"/>
					<path fill="#875999" d="M307.6,83.5c2.7,1.1,5.7-0.1,7.7-1.9c1.5-1.3,0.7-3.2-0.7-3.9c-0.2-1.8-0.9-3.5-2.2-4.7
						c-1-1-2.6-1.5-4-1c-1.9,0.6-3,2.4-3.7,4.2C303.6,79.1,304.5,82.2,307.6,83.5z M309.6,78c0,0.2,0.1,0.3,0.1,0.5c0,0,0,0.1,0,0.1
						c0,0,0,0.1,0,0.2c-0.1,0-0.2,0-0.2,0c-0.1,0-0.2-0.1-0.3-0.1c0-0.1,0-0.1,0-0.2c0,0,0-0.1,0-0.2c0.1-0.2,0.1-0.5,0.3-0.7
						C309.6,77.7,309.6,77.9,309.6,78z M309.2,78.8C309.2,78.8,309.3,78.8,309.2,78.8C309.3,78.8,309.2,78.8,309.2,78.8
						C309.2,78.8,309.2,78.8,309.2,78.8z M309,76.6C309,76.6,309,76.6,309,76.6C309,76.6,309,76.5,309,76.6
						C309,76.5,309,76.6,309,76.6z"/>
					<path fill="#875999" d="M358.3,69.1c0.1,0.2,0.4,0.7,0.1,0.1c0.5,1.3,1.6,2.1,3.1,1.7c0.1,0,0.2-0.1,0.3-0.1
						c0.5,0.2,1.1,0.3,1.7,0.1c1.3-0.4,2.1-1.8,1.7-3.1c-0.3-1-0.4-1.9-0.8-2.8c-0.6-1.4-2-2-3.4-2.1c-1.2-0.1-2.3,0.1-3,1.2
						c-0.5,0.8-0.8,1.6-0.8,2.5c0,0.7,0.2,1.4,0.6,2C357.9,68.6,358.2,68.9,358.3,69.1z M362.1,65.8
						C362.1,65.8,362.1,65.8,362.1,65.8c0,0-0.1-0.1-0.1-0.2C362,65.7,362.1,65.8,362.1,65.8z"/>
				</g>
			</g>
			<g>
				<path fill="#D17DB4" d="M257.9-113.8c-7.7,0-18.1-2-25,1.8c-6.6,3.7-10.4,11.5-12.8,18.3c-3.7,10.3-6,20.5-9,30.8
					c-3.2,11.2-6.7,23-11.1,33.7c-6.3,15-19.5,28.5-30.7,40c-16.6,17.1-36.4,38.3-36.6,63.3c-0.1,9.4-0.7,17.1,4.5,25.2
					c4.6,7.2,11.6,14.3,20.6,15c16.3,1.3,32-15.5,43.1-25c11.7-10,20.6-23.2,31.9-33.5c7.9-7.2,15.7-14.7,22.3-23.1
					c7.4-9.4,16.7-18.3,23.6-28.2c6.4-9.3,12.8-23,13.9-34c1.2-11.6-3.2-26.5-5.3-37.7c-1.8-9.4-5.2-18.7-8.2-27.8
					c-2.1-6.5-5.6-11.4-12-14.5C265.3-110.5,259.8-113.8,257.9-113.8z"/>
				<g>
					<g>
						<path fill="#F5D220" d="M173.9-11.3c9.7,0.1,18.9,3.2,28.1,5.9c9.3,2.8,18.8,4.5,28.4,6.1c9.5,1.6,18.9,3.4,28.3,5.1
							c8.7,1.5,17.7,2.7,26.5,1.6c0.6-0.1,0.6-1.1,0-1c-9,1.1-18.2-0.1-27.1-1.7c-9.5-1.7-18.9-3.5-28.4-5.1
							c-9.6-1.6-19-3.4-28.3-6.2c-9-2.7-18-5.6-27.5-5.7C173.2-12.3,173.2-11.3,173.9-11.3L173.9-11.3z"/>
					</g>
					<g>
						<path fill="#F5D220" d="M162.5,2.7c19.1,0.2,38,2.6,56.8,5.3c9.1,1.3,18.4,2.2,27.5,4.2c9,1.9,17.8,4.9,27,5.9
							c0.6,0.1,0.6-0.9,0-1c-9.4-1.1-18.4-4.1-27.7-6.1c-9-1.9-18.4-2.8-27.5-4.1c-18.6-2.6-37.3-5-56.2-5.2
							C161.9,1.7,161.9,2.7,162.5,2.7L162.5,2.7z"/>
					</g>
					<g>
						<path fill="#F5D220" d="M152.5,16.1c20.5,0.1,40.3,5.4,60.1,10c9.1,2.1,18.4,3.8,27.5,5.8c4.5,1,8.9,1.9,13.5,2.6
							c2,0.3,3.9,0.6,5.9,0.8c1.1,0.1,2.1,0.2,3.2,0.2c0.9,0,3.5-0.4,4.2,0.3c0-0.3,0.1-0.5,0.1-0.8c-0.2,0.1-1,0-1.3,0
							c-0.6,0.1-0.4,1.1,0.3,1c0.5-0.1,1.1,0.2,1.6-0.1c0.3-0.2,0.3-0.6,0.1-0.8c-0.9-0.9-2.1-0.6-3.3-0.6c-2.1,0-4.3-0.2-6.4-0.4
							c-5-0.6-10-1.6-15-2.7c-9.7-2.1-19.5-3.9-29.1-6.1c-20.2-4.6-40.4-10.2-61.3-10.3C151.9,15.1,151.9,16.1,152.5,16.1
							L152.5,16.1z"/>
					</g>
					<g>
						<path fill="#F5D220" d="M146.4,24.1c12.2,3.2,23.4,9.3,35,14.1c12.1,4.9,25.1,8.1,37.9,10.4c6.2,1.1,12.4,1.2,18.7,1.4
							c3.5,0.1,7.1,0.3,10.6,0.5c1.4,0.1,2.8,0.2,4.2,0.3c0.6,0.1,2,0.5,2,0.2c0,0.6,1,0.6,1,0c0.2-2.5-28.4-2.2-31.7-2.6
							c-13.4-1.9-27.2-5.3-39.8-10.2c-12.6-4.8-24.4-11.6-37.5-15C146,22.9,145.8,23.9,146.4,24.1L146.4,24.1z"/>
					</g>
					<g>
						<path fill="#F5D220" d="M132.4,40.1c8.7,1.2,16.8,4.9,24.8,8.4c8.3,3.6,16.5,6.6,25.2,9.2c9.3,2.8,18.6,5.2,28.1,7.2
							c8.9,1.8,17.8,4.7,27,4c0.6,0,0.7-1,0-1c-1,0-1.9,0-2.9,0c-0.6,0-0.6,1,0,1c1,0,1.9,0,2.9,0c0-0.3,0-0.7,0-1
							c-9.4,0.7-18.5-2.3-27.6-4.2c-9.5-1.9-18.8-4.5-28-7.2c-8.8-2.6-17.2-5.8-25.6-9.5c-7.5-3.3-15.2-6.6-23.5-7.7
							C132,39,131.8,40,132.4,40.1L132.4,40.1z"/>
					</g>
					<g>
						<path fill="#F5D220" d="M127.2,56.1c7.8-0.3,15.4,1.4,22.8,3.4c7.8,2.1,15.5,4.3,23.3,6.2c16.3,4,32.5,8,49.2,9.7
							c0.6,0.1,0.6-0.9,0-1c-17.3-1.8-34-6-50.9-10.1c-7.5-1.8-14.8-4-22.3-6c-7.2-2-14.7-3.6-22.2-3.2
							C126.6,55.1,126.6,56.1,127.2,56.1L127.2,56.1z"/>
					</g>
					<g>
						<path fill="#F5D220" d="M122.3,70c5.8,3,12.5,3.9,18.9,4.4c8.1,0.7,16.1,1.1,24.2,2.2c9.1,1.3,18.3,2.5,27.3,4.3
							c7.9,1.5,15.8,3.8,23.9,3.2c0.6,0,0.6-1.1,0-1c-8,0.6-15.8-1.6-23.6-3.1c-8.7-1.7-17.6-2.8-26.3-4.1
							c-7.4-1.1-14.8-1.7-22.3-2.2c-7.3-0.5-14.9-1.1-21.5-4.5C122.2,68.8,121.7,69.7,122.3,70L122.3,70z"/>
					</g>
					<g>
						<path fill="#F5D220" d="M115.9,86.1c16.5,0,33,0.6,49.5,1.2c8.1,0.3,16.2,0.5,24.2,1c7.7,0.5,15.3,1.7,23,1.1c0.6,0,0.6-1,0-1
							c-7.4,0.5-14.8-0.5-22.1-1c-8-0.6-16.1-0.7-24.1-1c-16.8-0.7-33.6-1.2-50.4-1.3C115.2,85.1,115.2,86.1,115.9,86.1L115.9,86.1z
							"/>
					</g>
					<g>
						<path fill="#F5D220" d="M202.5,105.1c-14,0-28,1.3-42,0.2c-7.3-0.6-14.2-2.4-21.3-3.9c-7-1.4-14.2-2.3-21.4-2.4
							c-0.6,0-0.6,1,0,1c7.4,0,14.7,1,22,2.5c6.6,1.3,13,3,19.8,3.6c14.3,1.4,28.6-0.1,42.9-0.1
							C203.2,106.1,203.2,105.1,202.5,105.1L202.5,105.1z"/>
					</g>
				</g>
			</g>
			<g>
				<g>
					<path fill="#FFFFFF" d="M593.8,205.3c1.9,9,2.9,18.3,4.2,27.5c2,14.3,3.9,28.6,4.8,42.9c-2.6,2.5-5.1,4.9-7.5,7.3
						c-1.6,1.6-3.2,3.1-4.9,4.7c-1.6-16.7-5.9-33-9.7-49.4c-2.2-9.7-4-19.4-6.1-29.1c-0.8-3.7-1.6-7.5-2.2-11.3
						c0.3-0.3,0.7-0.5,1-0.8c5.2-4.1,10.3-8.8,15.4-13.3C590.1,191.1,592.2,198.1,593.8,205.3z"/>
					<path fill="#FFFFFF" d="M556,214.2c0.2,6.3,0.3,12.5,1.4,18.7c2.3,12.8,5.5,25.8,10.4,37.9c3.7,9,8.2,17.7,11.5,26.9
						c-4.8,4.1-9.8,7.9-15.1,11.3c-1.5-4.4-3.3-8.6-5.1-12.9c-3.7-8.4-6.9-16.8-9.5-25.6c-2.8-9.3-5.3-18.6-7.2-28
						c-0.9-4.2-2-8.4-2.8-12.6c3.7-3.3,7.3-6.7,10.7-10.4c1.9-2.1,3.8-4.2,5.8-6.2C556,213.5,556,213.9,556,214.2z"/>
					<path fill="#FFFFFF" d="M600.1,193.5c1.7,9.4,3.5,18.8,5.1,28.3c1.6,9.6,3.3,19.1,6.1,28.4c1.4,4.8,2.9,9.6,4.1,14.4
						c-4.1,3.2-8,6.7-11.7,10.2c-0.9-13.8-2.7-27.6-4.6-41.4c-1.3-9.1-2.2-18.5-4.1-27.5c-1.7-7.7-4-15.2-5.3-22.9
						c2.8-2.4,5.6-4.8,8.6-7C598.3,181.9,599.1,187.7,600.1,193.5z"/>
					<path fill="#FFFFFF" d="M529.3,286.8c1.1,8.1,1.5,16.1,2.2,24.2c0.3,2.9,0.6,5.8,1.1,8.6c-0.2,0-0.5,0-0.7,0
						c-4,0-7.7,0.2-11.2-0.1c-0.2-11.2-0.6-22.5-1.1-33.7c-0.3-8-0.4-16.1-1-24.1c-0.3-3.8-0.7-7.6-1-11.4c1.5-1.7,3.1-3.3,4.7-4.9
						c0.7,4.7,1.8,9.4,2.7,14.1C526.8,268.5,528,277.7,529.3,286.8z"/>
					<path fill="#FFFFFF" d="M571.4,198.6c0.7,4.5,1.7,8.9,2.6,13.3c2,9.2,3.7,18.4,5.8,27.5c3.8,16.2,8,32.5,9.5,49.1
						c-3,2.8-6,5.6-9.2,8.4c-3.6-9.8-8.6-19.2-12.3-29c-4.8-12.7-8.3-26.4-10.2-39.8c-0.2-1.6-0.3-8.9-0.5-16.1
						C561.7,207.3,566.4,202.8,571.4,198.6z"/>
					<path fill="#FFFFFF" d="M518.7,286.8c0.4,10.9,0.8,21.7,1,32.6c-4.4-0.4-8.6-1.6-13-4.3c-0.7-0.4-1.3-0.9-2-1.4
						c-0.1-0.3-0.1-0.6-0.2-0.8c-1.4-7.1-3.3-14.1-3.9-21.3c-0.5-6.9-0.5-13.9-0.3-20.8c5.2-7.3,11.7-13.9,16.4-19.4
						c0.3,3.7,0.7,7.5,0.9,11.2C518.2,270.7,518.3,278.8,518.7,286.8z"/>
					<path fill="#FFFFFF" d="M548.4,269.7c2.6,8.6,5.6,16.9,9.2,25.2c2.1,4.8,4.2,9.6,5.8,14.5c-4.2,2.6-8.5,4.8-12.9,6.5
						c-0.6-4.4-1.6-8.9-2.8-13.2c-2-7.4-4.2-14.8-6-22.3c-3.6-14.7-7.3-29.3-9.3-44.3c2.1-1.9,4.3-3.7,6.4-5.6
						c0.8,3.7,1.7,7.4,2.5,11.2C543.2,251.1,545.6,260.5,548.4,269.7z"/>
					<path fill="#FFFFFF" d="M546.5,302.1c1.3,4.6,2.4,9.4,3,14.1c-5.1,1.9-10.4,3-15.9,3.3c-0.7-3.9-1-7.8-1.3-11.7
						c-0.5-7.5-1.1-14.9-2.2-22.3c-1.3-8.8-2.4-17.6-4.1-26.3c-1-4.9-2.2-9.7-2.8-14.7c2.7-2.6,5.5-5.1,8.3-7.6
						c2,14.2,5.4,28,8.8,41.9C542.2,286.7,544.4,294.4,546.5,302.1z"/>
					<path fill="#FFFFFF" d="M644,159.6c1,5.3,1.4,10.7,1.6,16.1c0.4,7.6,0.9,15.3,1.3,22.9c0.9,16.3,1,32.6,1,48.9
						c-4.3,1.5-8.6,3-12.7,4.7c-2.2,0.9-4.4,2-6.6,3.2c-0.9-4.4-1.3-8.8-1.7-13.2c-0.7-8.8-1.5-17.5-2.5-26.2c-1.3-11-0.5-22-1.5-33
						c-0.6-6.6-1-13.3-1.2-20c4.7-1.8,9.5-3,13.8-3.5C638.2,159.3,641,159.4,644,159.6z"/>
					<path fill="#FFFFFF" d="M647.9,197.6c-0.5-7.9-0.9-15.7-1.3-23.6c-0.3-4.8-0.7-9.6-1.5-14.4c2.6,0.2,5.3,0.6,7.9,1.1
						c2.2,15.4,0.4,30.9,1.2,46.4c0.6,12.5,2.2,24.8,3.9,37.1c-3.1,0.9-6.1,1.9-9.1,2.9C648.9,230.6,648.9,214.1,647.9,197.6z"/>
					<path fill="#FFFFFF" d="M704.7,198.8c-0.2-6.2-0.9-12.3-1.4-18.6c-0.2-2.1-0.3-4.3-0.3-6.4c5.6,2.2,9.9,5.5,12.6,11.3
						c0.9,1.8,4.1,7.2,4.1,9.2c0,7.7,2,18.1-1.8,25c-2.5,4.6-7,7.8-11.8,10.1C704.6,219.3,705,209,704.7,198.8z"/>
					<path fill="#FFFFFF" d="M499.7,292.5c0.6,6.7,2.3,13.2,3.6,19.8c0,0.2,0.1,0.4,0.1,0.6c-6-4.5-11.2-10.7-11.8-18.4
						c-0.6-7.7,2.8-15.2,7.5-22.2C499.1,279,499.1,285.8,499.7,292.5z"/>
					<path fill="#FFFFFF" d="M701.1,173.1c0.3,0.1,0.6,0.2,0.8,0.3c0.1,2.9,0.2,5.8,0.6,8.7c0.7,6.2,1.2,12.3,1.3,18.5
						c0.2,9.8,0,19.6,1.5,29.3c-1.9,0.9-3.8,1.6-5.6,2.3c-2.3,0.8-4.5,1.5-6.8,2.2c0-21.3,0-42.7,0-64
						C695.6,171.3,698.4,172.2,701.1,173.1z"/>
					<path fill="#FFFFFF" d="M653.9,160.9c6.8,1.2,13.5,2.9,19.3,4c1.2,0.2,2.3,0.5,3.4,0.7c0.3,5.2,0,10.4-0.4,15.6
						c-0.6,7.8-0.9,15.5-1,23.3c-0.2,11.6-0.2,23.2-0.1,34.8c-2.1,0.6-4.2,1.1-6.3,1.7c-3.3,0.9-6.6,1.9-9.9,2.9
						c-1.9-12.9-3.5-25.8-4-38.8C654.5,190.5,656,175.6,653.9,160.9z"/>
					<path fill="#FFFFFF" d="M676.4,202.6c0.2-7.7,0.6-15.4,1.1-23.2c0.3-4.5,0.5-9,0.3-13.5c4.7,1.1,9.4,2.6,14.1,4.2
						c0,21.5,0,43.1,0,64.6c-5.2,1.6-10.5,3-15.7,4.4C676.1,226.9,676.1,214.7,676.4,202.6z"/>
					<path fill="#FFFFFF" d="M622,184.1c0.9,11,0,22.2,1.6,33.2c1.3,9.1,1.7,18.3,2.6,27.4c0.4,3.8,0.8,7.6,1.6,11.3
						c-4,2.3-7.8,5-11.5,7.9c-1.1-4.4-2.4-8.8-3.7-13.1c-2.8-9.3-4.6-18.7-6.2-28.3c-1.6-9.5-3.4-19-5.1-28.4
						c-1.1-6.2-2-12.4-2.1-18.7c0.8-0.6,1.6-1.2,2.4-1.7c5.4-3.7,12.3-7.4,19.2-10.1C621,170.3,621.4,177.2,622,184.1z"/>
				</g>
			</g>
			<g>
				<path fill="#D17DB4" d="M257.9,486.2c-7.7,0-18.1-2-25,1.8c-6.6,3.7-10.4,11.5-12.8,18.3c-3.7,10.3-6,20.5-9,30.8
					c-3.2,11.2-6.7,23-11.1,33.7c-6.3,15-19.5,28.5-30.7,40c-16.6,17.1-36.4,38.3-36.6,63.3c-0.1,9.4-0.7,17.1,4.5,25.2
					c4.6,7.2,11.6,14.3,20.6,15c16.3,1.3,32-15.5,43.1-25c11.7-10,20.6-23.2,31.9-33.5c7.9-7.2,15.7-14.7,22.3-23.1
					c7.4-9.4,16.7-18.3,23.6-28.2c6.4-9.3,12.8-23,13.9-34c1.2-11.6-3.2-26.5-5.3-37.7c-1.8-9.4-5.2-18.7-8.2-27.8
					c-2.1-6.5-5.6-11.4-12-14.5C265.3,489.5,259.8,486.2,257.9,486.2z"/>
				<g>
					<g>
						<path fill="#F5D220" d="M215.7,499.4c11.7,2.9,23.8,2.6,35.8,2.8c6.2,0.1,12.3,0.6,18.5,1.3c6.8,0.8,13.7,0.6,20.5,0.6
							c0.6,0,0.6-1,0-1c-6.2,0-12.4,0.1-18.6-0.4c-6.2-0.5-12.3-1.3-18.6-1.4c-12.5-0.3-25.2,0.3-37.4-2.8
							C215.4,498.3,215.1,499.2,215.7,499.4L215.7,499.4z"/>
					</g>
					<g>
						<path fill="#F5D220" d="M207.2,514.1c29.3,0,58.7,0,88,0c0.6,0,0.6-1,0-1c-29.3,0-58.7,0-88,0
							C206.6,513.1,206.6,514.1,207.2,514.1L207.2,514.1z"/>
					</g>
					<g>
						<path fill="#F5D220" d="M201.2,530.7c15.5,0,30.9,0.2,46.4-0.1c7.8-0.2,15.5-0.5,23.3-1c7.6-0.6,15.3-1,22.8,0.5
							c0.6,0.1,0.9-0.8,0.3-1c-7.1-1.3-14.1-1.1-21.3-0.6c-7.7,0.5-15.4,0.9-23.2,1.1c-16.1,0.4-32.2,0.2-48.4,0.2
							C200.6,529.7,200.6,530.7,201.2,530.7L201.2,530.7z"/>
					</g>
					<g>
						<path fill="#F5D220" d="M195.1,546.1c16.6,2.4,33.2,5,49.9,5.8c16.2,0.8,32.6-1.2,48.7,1.5c0.6,0.1,0.9-0.9,0.3-1
							c-15.6-2.6-31.4-1-47.1-1.5c-17.3-0.6-34.5-3.3-51.6-5.9C194.7,545,194.4,546,195.1,546.1L195.1,546.1z"/>
					</g>
					<g>
						<path fill="#F5D220" d="M198.5,558.1c18.3,0,36.7-0.1,55,1c7.6,0.4,15.3,0.9,22.9,1.3c7.3,0.4,14.8,0.9,21.9,3
							c0.6,0.2,0.9-0.8,0.3-1c-6.6-2-13.7-2.6-20.6-3c-7.9-0.5-15.7-0.9-23.6-1.3c-18.6-1.1-37.3-1-56-1
							C197.9,557.1,197.9,558.1,198.5,558.1L198.5,558.1z"/>
					</g>
					<g>
						<path fill="#F5D220" d="M183.6,574c7.4,3.8,15.7,5,23.9,5.8c9.2,0.9,18.3,1.3,27.4,2.6c11,1.6,22.1,0.7,33.2,1.6
							c11.3,0.9,22.5,1.4,33.8,1.5c0.6,0,0.6-1,0-1c-11,0-21.9-0.3-32.8-1.4c-11-1-22.1-0.2-33-1.5c-8.7-1-17.4-1.8-26.2-2.5
							c-8.7-0.7-17.8-1.8-25.7-5.9C183.6,572.8,183,573.7,183.6,574L183.6,574z"/>
					</g>
					<g>
						<path fill="#F5D220" d="M173.9,588.7c9.7,0.1,18.9,3.2,28.1,5.9c9.3,2.8,18.8,4.5,28.4,6.1c9.5,1.6,18.9,3.4,28.3,5.1
							c8.7,1.5,17.7,2.7,26.5,1.6c0.6-0.1,0.6-1.1,0-1c-9,1.1-18.2-0.1-27.1-1.7c-9.5-1.7-18.9-3.5-28.4-5.1
							c-9.6-1.6-19-3.4-28.3-6.2c-9-2.7-18-5.6-27.5-5.7C173.2,587.7,173.2,588.7,173.9,588.7L173.9,588.7z"/>
					</g>
				</g>
			</g>
			<g>
				<g>
					<path fill="#875999" d="M-3.7,287.8c-1.6-9.6-3.4-19-6.2-28.3c-1.3-4.4-2.7-8.7-3.7-13.1c0.3-0.2,0.6-0.5,0.9-0.7
						c1.1,4.9,2.6,9.7,4.1,14.4c2.8,9.3,4.5,18.8,6.1,28.4c1.6,9.5,3.4,18.9,5.1,28.3c1,5.7,1.8,11.6,2,17.4c-0.3,0.2-0.7,0.5-1,0.7
						c-0.1-6.3-1-12.6-2.1-18.7C-0.3,306.8-2.1,297.3-3.7,287.8z"/>
					<path fill="#875999" d="M3.6,276.8c-1.9-13.7-3.7-27.5-4.6-41.4c0.3-0.3,0.6-0.6,0.9-0.9c0.9,14.4,2.8,28.7,4.8,42.9
						C6,286.7,6.9,296,8.9,305c1.6,7.2,3.7,14.2,5,21.5c-0.3,0.3-0.6,0.5-0.9,0.8c-1.4-7.7-3.7-15.2-5.3-22.9
						C5.8,295.3,4.9,286,3.6,276.8z"/>
					<path fill="#875999" d="M31.8,325.2c0.1-0.2,0-1,0-1.3c0-0.2,0.2-0.3,0.4-0.4c0,0.7,0.1,1.3,0.4,1.6
						C32.3,325.2,32.1,325.2,31.8,325.2z"/>
					<path fill="#875999" d="M22.1,272c-3.8-16.4-8.1-32.7-9.7-49.4c0.3-0.3,0.6-0.6,0.9-0.9c1.5,16.6,5.7,32.8,9.5,49.1
						c2.1,9.1,3.8,18.4,5.8,27.5c1,4.4,1.9,8.8,2.6,13.3c-0.3,0.2-0.6,0.5-0.9,0.7c-0.6-3.8-1.4-7.5-2.2-11.3
						C26.1,291.4,24.3,281.7,22.1,272z"/>
					<path fill="#875999" d="M34.9,242.3c-3.7-9.8-8.7-19.1-12.3-29c0.3-0.2,0.5-0.5,0.8-0.7c3.3,9.1,7.8,17.9,11.5,26.9
						c4.9,12.1,8.1,25.1,10.4,37.9c1.1,6.2,1.2,12.4,1.4,18.7c0,0.3,0,0.7,0,1c-0.4,0.4-0.8,0.8-1.1,1.2c-0.3-7.2-0.3-14.5-0.5-16.1
						C43.2,268.7,39.7,255,34.9,242.3z"/>
					<path fill="#875999" d="M64.5,295.6c0.3,0,0.7,0,1,0C65.4,296.2,64.5,296.2,64.5,295.6z"/>
					<path fill="#875999" d="M64.5,292.7c0-0.1,0-0.2,0.1-0.3c0,1.1,0,2.1-0.1,3.2C64.5,294.6,64.5,293.6,64.5,292.7z"/>
					<path fill="#875999" d="M53.1,239.9c-2.6-8.8-5.8-17.2-9.5-25.6c-1.8-4.2-3.7-8.5-5.1-12.9c0.3-0.2,0.6-0.4,0.9-0.5
						c1.6,4.9,3.7,9.7,5.8,14.5c3.6,8.3,6.6,16.5,9.2,25.2c2.8,9.3,5.2,18.6,7.2,28.1c0.8,3.7,1.7,7.4,2.5,11.2
						c-0.3,0.2-0.6,0.5-0.8,0.7c-0.9-4.2-2-8.4-2.8-12.6C58.4,258.5,55.8,249.1,53.1,239.9z"/>
					<path fill="#875999" d="M55,207.6c-1.2-4.3-2.2-8.7-2.8-13.2c0.3-0.1,0.6-0.2,1-0.4c0.6,4.8,1.8,9.5,3,14.1
						c2.1,7.8,4.3,15.5,6.2,23.3c3.4,13.9,6.8,27.7,8.8,41.9c-0.3,0.3-0.6,0.5-0.9,0.8c-2.1-15-5.7-29.6-9.3-44.3
						C59.2,222.4,57,215,55,207.6z"/>
					<path fill="#875999" d="M72.6,224.8c-1.1-7.4-1.7-14.8-2.2-22.3c-0.3-3.9-0.6-7.8-1.3-11.7c0.3,0,0.6,0,1,0
						c0.5,2.9,0.8,5.8,1.1,8.6c0.7,8.1,1.1,16.1,2.2,24.2c1.3,9.1,2.5,18.3,4.3,27.3c0.9,4.7,2.1,9.4,2.7,14.1
						c-0.3,0.3-0.6,0.6-0.9,0.9c-0.6-4.9-1.8-9.8-2.8-14.7C74.9,242.4,73.8,233.5,72.6,224.8z"/>
					<path fill="#875999" d="M83.1,224.5c-0.4-11.2-0.8-22.5-1.1-33.7c0.3,0,0.7,0.1,1,0.1c0.2,10.9,0.6,21.7,1,32.6
						c0.3,8.1,0.5,16.2,1,24.2c0.2,3.7,0.7,7.5,0.9,11.2c0,0,0,0,0,0c-0.3,0.3-0.6,0.7-0.9,1c-0.3-3.8-0.7-7.6-1-11.4
						C83.5,240.6,83.4,232.5,83.1,224.5z"/>
					<path fill="#875999" d="M102,218.7c-0.6-7.3-2.4-14.2-3.9-21.3c-0.1-0.3-0.1-0.6-0.2-0.8c0.4,0.3,0.8,0.6,1.2,0.9
						c0,0.2,0.1,0.4,0.1,0.6c1.3,6.6,3,13,3.6,19.8c0.6,6.7,0.6,13.5,0.5,20.2c-0.4,0.5-0.7,1-1.1,1.6
						C102.5,232.6,102.6,225.7,102,218.7z"/>
				</g>
			</g>
			<g>
				<g>
					<path fill="#875999" d="M699.8,328.2c0.3,2.9,0.5,5.8,0.6,8.7c-0.4-0.1-0.7-0.3-1.1-0.4c-0.1-2.1-0.1-4.3-0.3-6.4
						c-0.5-6.2-1.3-12.3-1.4-18.6c-0.3-10.2,0.1-20.5-1.5-30.7c0.3-0.2,0.6-0.3,0.9-0.4c1.5,9.6,1.3,19.5,1.5,29.3
						C698.6,315.9,699.1,322,699.8,328.2z"/>
					<path fill="#875999" d="M709.4,339.9c0-21.3,0-42.7,0-64c0.3-0.1,0.7-0.2,1-0.3c0,21.5,0,43.1,0,64.6
						C710,340.1,709.7,340,709.4,339.9z"/>
					<path fill="#875999" d="M726.9,305.7c-0.2,7.8-0.5,15.5-1,23.3c-0.4,5.2-0.7,10.4-0.4,15.6c-0.3-0.1-0.7-0.2-1-0.3
						c-0.2-4.5,0-9,0.3-13.5c0.5-7.7,0.9-15.4,1.1-23.2c0.3-12.2,0.2-24.3,0.2-36.5c0.3-0.1,0.7-0.2,1-0.3
						C727.1,282.5,727.2,294.1,726.9,305.7z"/>
					<path fill="#875999" d="M749.3,349.6c-0.3-0.1-0.7-0.1-1-0.2c-2-14.7-0.6-29.5-1.1-44.3c-0.4-13-2.1-25.9-4-38.8
						c0.3-0.1,0.6-0.2,1-0.3c1.8,12.3,3.3,24.7,3.9,37.1C748.9,318.6,747.1,334.2,749.3,349.6z"/>
					<path fill="#875999" d="M755.3,311.7c0.4,7.6,0.9,15.3,1.3,22.9c0.3,5.3,0.6,10.8,1.6,16.1c-0.3,0-0.7,0-1-0.1
						c-0.9-4.7-1.2-9.6-1.5-14.4c-0.5-7.9-0.9-15.7-1.3-23.6c-1-16.5-1-33-1-49.6c0.3-0.1,0.7-0.2,1-0.3
						C754.4,279.1,754.4,295.4,755.3,311.7z"/>
					<path fill="#875999" d="M779.3,327.2c-1-11-0.2-22.1-1.5-33c-1-8.7-1.8-17.4-2.5-26.2c-0.4-4.4-0.8-8.8-1.7-13.2
						c0.3-0.2,0.6-0.3,0.9-0.5c0.8,3.7,1.2,7.6,1.6,11.3c0.9,9.2,1.3,18.3,2.6,27.4c1.6,11,0.7,22.1,1.6,33.2
						c0.6,6.9,1,13.7,1.2,20.6c-0.3,0.1-0.6,0.2-0.9,0.3C780.3,340.5,780,333.9,779.3,327.2z"/>
					<path fill="#875999" d="M795.9,287.8c-1.6-9.6-3.4-19-6.2-28.3c-1.3-4.4-2.7-8.7-3.7-13.1c0.3-0.2,0.6-0.5,0.9-0.7
						c1.1,4.9,2.6,9.7,4.1,14.4c2.8,9.3,4.5,18.8,6.1,28.4c1.6,9.5,3.4,18.9,5.1,28.3c1,5.7,1.8,11.6,2,17.4c-0.3,0.2-0.7,0.5-1,0.7
						c-0.1-6.3-1-12.6-2.1-18.7C799.3,306.8,797.5,297.3,795.9,287.8z"/>
					<path fill="#875999" d="M803.2,276.8c-1.9-13.7-3.7-27.5-4.6-41.4c0.3-0.3,0.6-0.6,0.9-0.9c0.9,14.4,2.8,28.7,4.8,42.9
						c1.3,9.1,2.2,18.4,4.2,27.5c1.6,7.2,3.7,14.2,5,21.5c-0.3,0.3-0.6,0.5-0.9,0.8c-1.4-7.7-3.7-15.2-5.3-22.9
						C805.4,295.3,804.5,286,803.2,276.8z"/>
				</g>
			</g>
			<g>
				<path fill="#F5D220" d="M443.4,587.3c1-13,3.4-25.2,6.8-37.8c3.2-12.3,4.1-24.8,6.6-37.2c1.2-5.7,2.4-11.6,3.1-17.4
					c-4.2,0.7-8.3,1.4-12.5,2.1c-1.9,18.1-6.1,36-9.4,53.9c-2.2,11.5-3.4,23.2-5.5,34.7c-0.3,1.6-0.6,3.3-0.9,4.9
					c3.7,4.6,7.6,9.2,11.1,13.9C442.7,598.7,443,593,443.4,587.3z"/>
				<path fill="#F5D220" d="M519.7,561.1c-1,14.2-2.3,28.1-4.9,42.1c-1.7,9.3-4.1,19.2-4.9,29c3.7-0.4,7.4-1,11.1-1.7
					c1.2-7.6,3.3-15.2,3.6-22.9c0.5-12.9-0.6-25.9,0.9-38.7c1.5-12.2,4.8-24.3,7.7-36.2c1.6-6.6,3.1-13.2,5.2-19.7
					c0.7-2.1,1.4-4.2,2.1-6.3c-4.6-3-9.7-5.5-14.9-7.5c-1.2,6.2-2.2,12.4-3.1,18.6C520.7,532.2,520.7,546.6,519.7,561.1z"/>
				<path fill="#F5D220" d="M489.2,601.3c1.2-14.8,1-29.7,1-44.6c0-14.8,0-29.6,0-44.4c0-6.8-0.1-13.5,0.3-20.2
					c-2.8,0-5.6,0-8.4,0.2c-0.5,2.4-0.9,4.9-1.3,7.3c-2.9,16.2-5.2,32.5-6.9,48.9c-1.6,15.5-3.1,31-4,46.5
					c-0.4,7.6-0.8,15.1-1.9,22.6c-0.4,2.9-0.4,5.8-0.4,8.8c4.4,2.3,9.1,4,13.8,4.9c1.6,0.3,3.1,0.5,4.7,0.8
					c0.6-3.4,0.9-6.8,1.2-10.3C487.7,614.9,488.6,608.2,489.2,601.3z"/>
				<path fill="#F5D220" d="M451.6,603c3.4-14,4.7-28.4,7.2-42.6c3.9-22.3,9.1-44.5,11.4-67c-2.4,0.3-4.9,0.7-7.3,1
					c-0.5,5.1-1.5,10.3-2.5,15.3c-2.6,12.9-3.5,26.1-6.9,38.9c-3.7,14.1-6.5,27.8-7.3,42.4c-0.3,5.7,0,11.7-0.2,17.7
					c1.1,1.4,2.2,2.7,3.4,4C450.1,609.5,450.9,606.3,451.6,603z"/>
				<path fill="#F5D220" d="M495.2,618.9c2.8-16.1,4.5-32.4,6.8-48.6c2.3-16.2,5.2-32.4,6.6-48.8c0.7-8.9,1.3-17.9,2.4-26.8
					c-2.7-0.6-5.4-1.1-8-1.5c-3.2-0.5-6.4-0.8-9.6-0.9c-0.3,6.7-0.3,13.4-0.3,20.1c0,15.5,0,30.9,0,46.4c0,15.5,0.3,31-1.3,46.4
					c-0.9,8.7-0.9,18.4-2.7,27.3c1.4,0.1,2.7,0.2,4.1,0.3C493.7,628.1,494.4,623.5,495.2,618.9z"/>
				<path fill="#F5D220" d="M423.5,535.9c2.1-12.2,6.4-24.5,8.9-36.9c-3.4,0.3-7,0.6-10.7,1c-2.7,9.9-5.7,19.8-8,29.9
					c-2,8.6-4,17.3-5.5,26c-0.1,0.3-0.1,0.6-0.2,0.9c3.7,5.2,7.2,10.5,10.7,15.8c0.2-1.5,0.4-3.1,0.6-4.6
					C420.8,557.3,421.7,546.5,423.5,535.9z"/>
				<path fill="#F5D220" d="M465.3,615c1.2-7.8,1.2-15.8,1.8-23.7c0.9-14.9,2.3-29.8,3.9-44.7c1.7-15.4,3.7-30.7,6.5-45.9
					c0.5-2.7,0.9-5.5,1.4-8.2c-1.9,0.1-3.7,0.3-5.6,0.5c-2.3,22.3-7.3,44.2-11.2,66.3c-2.6,14.8-3.8,29.9-7.5,44.5
					c-1,3.9-1.8,7.7-2.5,11.6c3.6,3.5,7.8,6.6,12.1,9.2C464.3,621.3,464.8,618.2,465.3,615z"/>
				<path fill="#F5D220" d="M434.7,551.9c3.4-18.1,7.6-36.2,9.6-54.5c-1.5,0.2-2.9,0.5-4.4,0.7c-1.4,0.2-2.9,0.4-4.5,0.6
					c-2.5,12.8-7,25.4-9.1,38c-2,12.4-3.2,25-4.9,37.5c-0.1,0.8-0.2,1.6-0.3,2.4c2.4,3.8,5.1,7.3,7.8,10.8c0.1-0.3,0.1-0.6,0.2-0.8
					C431.4,575.1,432.6,563.4,434.7,551.9z"/>
				<path fill="#F5D220" d="M410.8,529.1c2.3-9.6,5.1-19.1,7.7-28.7c-5,0.7-10,1.7-14.3,3.4c-1.4,7.2-3.1,14.4-4.4,21.6
					c-1,5.6-1.8,11.4-2.5,17.2c1.8,2.2,3.8,4.6,5.8,7.4c0.8,1.1,1.6,2.3,2.5,3.4c0-0.1,0-0.1,0-0.2
					C407.4,545.2,408.9,537.1,410.8,529.1z"/>
				<path fill="#F5D220" d="M506.9,632.5c0.7-9.5,3-19.1,4.7-28.2c2.7-15,4.3-29.9,5.2-45.1c0.9-14.1,1-28.1,3-42.1
					c0.9-6.3,2-12.6,3.1-18.9c-3-1.1-6-2-9-2.7c-1.3,10.4-1.8,20.9-2.9,31.3c-1.6,15.5-4.3,30.8-6.4,46.2c-2.3,16.8-4,33.7-7.2,50.4
					c-0.6,3.1-0.9,6.3-1.2,9.5C499.8,632.9,503.4,632.8,506.9,632.5z"/>
				<path fill="#F5D220" d="M536.6,531.6c-3.1,12.8-7,25.9-8.3,39.1c-1.3,12.8-0.1,25.9-0.8,38.8c-0.4,6.8-2.1,13.6-3.3,20.4
					c4.6-1,9.1-2.2,13.6-3.5c0.9-6,1.5-12,2.2-18c1.2-11,2.8-21.9,4.4-32.8c3-19.6,6.1-39.2,8.2-58.9c-1.6-1.5-3.2-3.1-4.8-4.5
					c-1.5-1.3-3-2.5-4.7-3.7c-0.4,1.2-0.8,2.4-1.2,3.7C539.8,518.5,538.2,525.1,536.6,531.6z"/>
				<path fill="#F5D220" d="M560.2,566.4c-1.8,18.5-4.4,36.8-7.4,55.2c2.2-0.7,4.4-1.5,6.6-2.2c2.2-13.7,6.6-27.1,8.7-41
					c2.2-14.2,2.7-28.4,2.7-42.7c-2-2-3.9-4-5.8-6c-0.2,1.7-0.3,3.4-0.6,5C563.1,545.3,561.3,555.8,560.2,566.4z"/>
				<path fill="#F5D220" d="M613.8,602.6c4.5-4.5,5-10.2,3.3-16c-0.7-2.5-1.9-5.1-3.3-7.5C613.8,586.9,613.8,594.7,613.8,602.6z"/>
				<path fill="#F5D220" d="M396.7,526.4c1.2-7,2.9-14,4.3-21c-6,3.2-10.3,8.3-11,16.6c-0.7,7.8,1.4,12.7,4.7,17.3
					C395.3,534.9,395.9,530.6,396.7,526.4z"/>
				<path fill="#F5D220" d="M573.9,538.7c-0.1,13-0.6,25.9-2.6,38.7c-2.1,13.8-6.5,27.2-8.7,40.9c1.5-0.5,3-1,4.6-1.5
					c0.5-0.2,1-0.3,1.6-0.5c1-12.9,3.1-25.8,4.8-38.7c1.5-11.7,2.8-23.5,4.5-35.2c-0.5-0.4-0.9-0.8-1.4-1.3
					C575.6,540.3,574.8,539.5,573.9,538.7z"/>
				<path fill="#F5D220" d="M542.4,613.5c-0.4,4-0.9,7.9-1.5,11.9c2.9-0.9,5.8-1.8,8.6-2.7c3.2-20,5.6-39.9,8-60.1
					c1.3-11.2,3.3-22.2,4.7-33.4c0.1-0.7,0.2-1.5,0.3-2.2c-2.4-2.6-4.7-5.1-7.2-7.6c-2.2,19.1-5.2,38-8.1,57
					C545.4,588.7,543.8,601.1,542.4,613.5z"/>
				<path fill="#F5D220" d="M595.8,610.5c3.7-0.9,7.3-1.9,10.7-3.3c1.6-0.7,3-1.4,4.3-2.2c0-10.2,0-20.4,0-30.6
					c-2.6-3.6-5.5-6.9-8.2-9.4c-1.6,7.2-3.6,14.3-4.9,21.6C596.3,594.4,596.1,602.4,595.8,610.5z"/>
				<path fill="#F5D220" d="M571.8,615.4c2.6-0.7,5.2-1.3,7.9-1.8c1.4-8.8,3.3-17.6,4.9-26.1c2-11.3,4.5-22.6,5.8-33.9
					c-3.2-2.9-6.4-5.9-9.7-8.8c-1.8,12.2-3.1,24.4-4.7,36.6C574.5,592.7,572.7,604,571.8,615.4z"/>
				<path fill="#F5D220" d="M582.7,613c3.3-0.6,6.7-1.2,10-1.9c0.2-7.4,0.4-14.7,1.5-21.9c1.4-8.9,4.1-17.7,5.9-26.6
					c-2.4-2.2-4.7-4.4-7.1-6.6c-1.4,10.2-3.5,20.3-5.3,30.4C586.2,595.1,584.1,604,582.7,613z"/>
			</g>
			<g>
				<path fill="#F5D220" d="M443.4-11c1-13,3.4-25.2,6.8-37.8c3.2-12.3,4.1-24.8,6.6-37.2c1.2-5.7,2.4-11.6,3.1-17.4
					c-4.2,0.7-8.3,1.4-12.5,2.1c-1.9,18.1-6.1,36-9.4,53.9c-2.2,11.5-3.4,23.2-5.5,34.7c-0.3,1.6-0.6,3.3-0.9,4.9
					c3.7,4.6,7.6,9.2,11.1,13.9C442.7,0.4,443-5.3,443.4-11z"/>
				<path fill="#F5D220" d="M519.7-37.2c-1,14.2-2.3,28.1-4.9,42.1c-1.7,9.3-4.1,19.2-4.9,29c3.7-0.4,7.4-1,11.1-1.7
					c1.2-7.6,3.3-15.2,3.6-22.9c0.5-12.9-0.6-25.9,0.9-38.7c1.5-12.2,4.8-24.3,7.7-36.2c1.6-6.6,3.1-13.2,5.2-19.7
					c0.7-2.1,1.4-4.2,2.1-6.3c-4.6-3-9.7-5.5-14.9-7.5c-1.2,6.2-2.2,12.4-3.1,18.6C520.7-66.1,520.7-51.7,519.7-37.2z"/>
				<path fill="#F5D220" d="M489.2,3.1c1.2-14.8,1-29.7,1-44.6c0-14.8,0-29.6,0-44.4c0-6.8-0.1-13.5,0.3-20.2c-2.8,0-5.6,0-8.4,0.2
					c-0.5,2.4-0.9,4.9-1.3,7.3c-2.9,16.2-5.2,32.5-6.9,48.9c-1.6,15.5-3.1,31-4,46.5c-0.4,7.6-0.8,15.1-1.9,22.6
					c-0.4,2.9-0.4,5.8-0.4,8.8c4.4,2.3,9.1,4,13.8,4.9c1.6,0.3,3.1,0.5,4.7,0.8c0.6-3.4,0.9-6.8,1.2-10.3
					C487.7,16.7,488.6,9.9,489.2,3.1z"/>
				<path fill="#F5D220" d="M451.6,4.7c3.4-14,4.7-28.4,7.2-42.6c3.9-22.3,9.1-44.5,11.4-67c-2.4,0.3-4.9,0.7-7.3,1
					c-0.5,5.1-1.5,10.3-2.5,15.3c-2.6,12.9-3.5,26.1-6.9,38.9c-3.7,14.1-6.5,27.8-7.3,42.4c-0.3,5.7,0,11.7-0.2,17.7
					c1.1,1.4,2.2,2.7,3.4,4C450.1,11.2,450.9,8,451.6,4.7z"/>
				<path fill="#F5D220" d="M495.2,20.6C498,4.5,499.7-11.8,502-28c2.3-16.2,5.2-32.4,6.6-48.8c0.7-8.9,1.3-17.9,2.4-26.8
					c-2.7-0.6-5.4-1.1-8-1.5c-3.2-0.5-6.4-0.8-9.6-0.9c-0.3,6.7-0.3,13.4-0.3,20.1c0,15.5,0,30.9,0,46.4c0,15.5,0.3,31-1.3,46.4
					c-0.9,8.7-0.9,18.4-2.7,27.3c1.4,0.1,2.7,0.2,4.1,0.3C493.7,29.8,494.4,25.3,495.2,20.6z"/>
				<path fill="#F5D220" d="M465.3,16.7c1.2-7.8,1.2-15.8,1.8-23.7c0.9-14.9,2.3-29.8,3.9-44.7c1.7-15.4,3.7-30.7,6.5-45.9
					c0.5-2.7,0.9-5.5,1.4-8.2c-1.9,0.1-3.7,0.3-5.6,0.5C471-82.9,466-61,462.1-38.9c-2.6,14.8-3.8,29.9-7.5,44.5
					c-1,3.9-1.8,7.7-2.5,11.6c3.6,3.5,7.8,6.6,12.1,9.2C464.3,23.1,464.8,19.9,465.3,16.7z"/>
				<path fill="#F5D220" d="M506.9,34.2c0.7-9.5,3-19.1,4.7-28.2c2.7-15,4.3-29.9,5.2-45.1c0.9-14.1,1-28.1,3-42.1
					c0.9-6.3,2-12.6,3.1-18.9c-3-1.1-6-2-9-2.7c-1.3,10.4-1.8,20.9-2.9,31.3c-1.6,15.5-4.3,30.8-6.4,46.2c-2.3,16.8-4,33.7-7.2,50.4
					c-0.6,3.1-0.9,6.3-1.2,9.5C499.8,34.6,503.4,34.5,506.9,34.2z"/>
				<path fill="#F5D220" d="M536.6-66.7c-3.1,12.8-7,25.9-8.3,39.1c-1.3,12.8-0.1,25.9-0.8,38.8c-0.4,6.8-2.1,13.6-3.3,20.4
					c4.6-1,9.1-2.2,13.6-3.5c0.9-6,1.5-12,2.2-18c1.2-11,2.8-21.9,4.4-32.8c3-19.6,6.1-39.2,8.2-58.9c-1.6-1.5-3.2-3.1-4.8-4.5
					c-1.5-1.3-3-2.5-4.7-3.7c-0.4,1.2-0.8,2.4-1.2,3.7C539.8-79.8,538.2-73.2,536.6-66.7z"/>
				<path fill="#F5D220" d="M560.2-31.8c-1.8,18.5-4.4,36.8-7.4,55.2c2.2-0.7,4.4-1.5,6.6-2.2c2.2-13.7,6.6-27.1,8.7-41
					c2.2-14.2,2.7-28.4,2.7-42.7c-2-2-3.9-4-5.8-6c-0.2,1.7-0.3,3.4-0.6,5C563.1-53,561.3-42.4,560.2-31.8z"/>
				<path fill="#F5D220" d="M613.8,4.3c4.5-4.5,5-10.2,3.3-16c-0.7-2.5-1.9-5.1-3.3-7.5C613.8-11.4,613.8-3.5,613.8,4.3z"/>
				<path fill="#F5D220" d="M573.9-59.6c-0.1,13-0.6,25.9-2.6,38.7c-2.1,13.8-6.5,27.2-8.7,40.9c1.5-0.5,3-1,4.6-1.5
					c0.5-0.2,1-0.3,1.6-0.5c1-12.9,3.1-25.8,4.8-38.7c1.5-11.7,2.8-23.5,4.5-35.2c-0.5-0.4-0.9-0.8-1.4-1.3
					C575.6-57.9,574.8-58.8,573.9-59.6z"/>
				<path fill="#F5D220" d="M542.4,15.2c-0.4,4-0.9,7.9-1.5,11.9c2.9-0.9,5.8-1.8,8.6-2.7c3.2-20,5.6-39.9,8-60.1
					c1.3-11.2,3.3-22.2,4.7-33.4c0.1-0.7,0.2-1.5,0.3-2.2c-2.4-2.6-4.7-5.1-7.2-7.6c-2.2,19.1-5.2,38-8.1,57
					C545.4-9.5,543.8,2.8,542.4,15.2z"/>
				<path fill="#F5D220" d="M595.8,12.2c3.7-0.9,7.3-1.9,10.7-3.3c1.6-0.7,3-1.4,4.3-2.2c0-10.2,0-20.4,0-30.6
					c-2.6-3.6-5.5-6.9-8.2-9.4c-1.6,7.2-3.6,14.3-4.9,21.6C596.3-3.9,596.1,4.2,595.8,12.2z"/>
				<path fill="#F5D220" d="M571.8,17.1c2.6-0.7,5.2-1.3,7.9-1.8c1.4-8.8,3.3-17.6,4.9-26.1c2-11.3,4.5-22.6,5.8-33.9
					c-3.2-2.9-6.4-5.9-9.7-8.8c-1.8,12.2-3.1,24.4-4.7,36.6C574.5-5.6,572.7,5.7,571.8,17.1z"/>
				<path fill="#F5D220" d="M582.7,14.8c3.3-0.6,6.7-1.2,10-1.9c0.2-7.4,0.4-14.7,1.5-21.9c1.4-8.9,4.1-17.7,5.9-26.6
					c-2.4-2.2-4.7-4.4-7.1-6.6c-1.4,10.2-3.5,20.3-5.3,30.4C586.2-3.2,584.1,5.8,582.7,14.8z"/>
			</g>
			<g>
				<path fill="#875999" d="M229.4,216.8c-8.4,0-13.7-0.4-20.5,4.7c-5.8,4.3-11.2,9.3-16.8,14c-13.4,11.1-26,22.8-39.2,34.3
					c-14.5,12.6-25.3,29.5-30.4,48.3c-2.4,9-4.8,19.6-3.2,29c1.9,11,13.7,23.7,20.7,32.4c11.6,14.4,17.2,32,30.2,45.7
					c12.1,12.7,35.6,16.8,50.1,5c9.1-7.4,14.2-16.3,19-26.7c4-8.6,9.9-16.2,13.9-24.6c9.3-19.8,20.9-37.8,23.4-59.7
					c1.5-13-0.2-22.5-5.2-34.9c-4.1-10.2-8.3-20.5-12.3-30.6C254.6,241.8,245.1,216.8,229.4,216.8z"/>
				<g>
					<g>
						<path fill="#FFFFFF" d="M141.5,305.9c1.8-4.8,4.4-9.2,6-14c0.6-1.8-2.3-2.6-2.9-0.8c-1.6,4.8-4.2,9.2-6,14
							C137.9,306.9,140.8,307.7,141.5,305.9L141.5,305.9z"/>
					</g>
					<g>
						<path fill="#FFFFFF" d="M159.5,288.6c1.2-4.6,1.1-9.6,3.8-13.6c1.1-1.6-1.5-3.1-2.6-1.5c-2.9,4.3-2.9,9.5-4.2,14.4
							C156.1,289.6,159,290.4,159.5,288.6L159.5,288.6z"/>
					</g>
					<g>
						<path fill="#FFFFFF" d="M178.9,282.2c-0.2-5.8,2.5-11.2,3.3-16.9c0.3-1.9-2.6-2.7-2.9-0.8c-0.8,6-3.6,11.6-3.4,17.7
							C176,284.1,179,284.1,178.9,282.2L178.9,282.2z"/>
					</g>
					<g>
						<path fill="#FFFFFF" d="M194.8,267.2c1-6.5-0.1-13.4,2.5-19.6c0.8-1.8-1.8-3.3-2.6-1.5c-2.8,6.6-1.8,13.4-2.8,20.4
							C191.7,268.3,194.6,269.1,194.8,267.2L194.8,267.2z"/>
					</g>
					<g>
						<path fill="#FFFFFF" d="M212.2,247.9c2.2-5.8,2.3-12.2,4.7-18c0.7-1.8-2.2-2.6-2.9-0.8c-2.4,5.8-2.5,12.2-4.7,18
							C208.6,248.9,211.5,249.7,212.2,247.9L212.2,247.9z"/>
					</g>
					<g>
						<path fill="#FFFFFF" d="M237.5,243.9c0.6-4.4,0.1-9,1.3-13.3c0.6-1.9-2.3-2.6-2.9-0.8c-1.3,4.4-0.7,8.9-1.3,13.3
							C234.4,245,237.3,245.8,237.5,243.9L237.5,243.9z"/>
					</g>
					<g>
						<path fill="#FFFFFF" d="M223.3,243.1c-0.7,4.8-1.1,9.6-1.4,14.4c-0.1,1.9,2.9,1.9,3,0c0.3-4.5,0.6-9.1,1.3-13.6
							C226.5,242,223.6,241.2,223.3,243.1L223.3,243.1z"/>
					</g>
					<g>
						<path fill="#FFFFFF" d="M245.3,249.9c1.6,5,0.7,10.4,0.6,15.6c0,1.9,3,1.9,3,0c0.1-5.4,1-11.1-0.7-16.4
							C247.6,247.3,244.7,248,245.3,249.9L245.3,249.9z"/>
					</g>
					<g>
						<path fill="#FFFFFF" d="M208.8,267.4c-1.8,3.8-2.7,7.8-4.2,11.7c-0.7,1.8,2.2,2.6,2.9,0.8c1.4-3.6,2.2-7.5,3.8-11
							C212.2,267.2,209.6,265.7,208.8,267.4L208.8,267.4z"/>
					</g>
					<g>
						<path fill="#FFFFFF" d="M230.6,263.9c0.9,2.9,0.6,5.9,0.6,8.9c0,1.9,3,1.9,3,0c0-3.3,0.3-6.6-0.7-9.7
							C232.9,261.3,230,262,230.6,263.9L230.6,263.9z"/>
					</g>
					<g>
						<path fill="#FFFFFF" d="M254.6,272.2c-0.1,4.7,0.5,9.3,2.1,13.7c0.6,1.8,3.5,1,2.9-0.8c-1.5-4.2-2-8.5-1.9-12.9
							C257.6,270.2,254.6,270.2,254.6,272.2L254.6,272.2z"/>
					</g>
					<g>
						<path fill="#FFFFFF" d="M269.2,298.2c0,5.1,0,10.2,0,15.3c0,1.9,3,1.9,3,0c0-5.1,0-10.2,0-15.3
							C272.2,296.2,269.2,296.2,269.2,298.2L269.2,298.2z"/>
					</g>
					<g>
						<path fill="#FFFFFF" d="M251.3,297.8c-1.6,5.3-1.5,11.4,0,16.8c0.5,1.9,3.4,1.1,2.9-0.8c-1.3-4.9-1.4-10.4,0-15.2
							C254.7,296.7,251.8,295.9,251.3,297.8L251.3,297.8z"/>
					</g>
					<g>
						<path fill="#FFFFFF" d="M239.9,282.2c-0.4,5-2.3,9.6-2,14.7c0.1,1.9,3.1,1.9,3,0c-0.3-5,1.6-9.7,2-14.7
							C243.1,280.2,240.1,280.2,239.9,282.2L239.9,282.2z"/>
					</g>
					<g>
						<path fill="#FFFFFF" d="M220.8,284.1c-2.4,5.2-3.7,11-4.2,16.8c-0.2,1.9,2.8,1.9,3,0c0.5-5.2,1.6-10.5,3.8-15.2
							C224.2,283.8,221.6,282.3,220.8,284.1L220.8,284.1z"/>
					</g>
					<g>
						<path fill="#FFFFFF" d="M193.2,280.2c-0.5,4.4-0.5,8.7-1.9,12.9c-0.6,1.8,2.3,2.6,2.9,0.8c1.5-4.4,1.6-9.1,2.1-13.7
							C196.4,278.2,193.4,278.3,193.2,280.2L193.2,280.2z"/>
					</g>
					<g>
						<path fill="#FFFFFF" d="M165.3,294.4c-0.6,4.1-1.1,8.2-2.7,12c-0.7,1.8,2.2,2.6,2.9,0.8c1.6-3.8,2.1-7.9,2.7-12
							C168.5,293.3,165.6,292.5,165.3,294.4L165.3,294.4z"/>
					</g>
					<g>
						<path fill="#FFFFFF" d="M179.9,304.2c0.1,3.1-0.6,6.2-0.7,9.3c0,1.9,3,1.9,3,0c0.1-3.1,0.8-6.2,0.7-9.3
							C182.8,302.2,179.8,302.2,179.9,304.2L179.9,304.2z"/>
					</g>
					<g>
						<path fill="#FFFFFF" d="M205.9,298.8c0.1,4.8-0.5,9.5-1.3,14.3c-0.3,1.9,2.6,2.7,2.9,0.8c0.8-5,1.5-10,1.4-15.1
							C208.9,296.9,205.9,296.9,205.9,298.8L205.9,298.8z"/>
					</g>
					<g>
						<path fill="#FFFFFF" d="M230.6,312.2c-0.6,4.3-0.7,8.7-1.9,12.9c-0.5,1.9,2.4,2.7,2.9,0.8c1.3-4.5,1.4-9.1,2.1-13.7
							C233.8,310.2,230.8,310.3,230.6,312.2L230.6,312.2z"/>
					</g>
					<g>
						<path fill="#FFFFFF" d="M250.6,329.5c-0.1,3.5-1.4,6.8-1.9,10.3c-0.3,1.9,2.6,2.7,2.9,0.8c0.6-3.7,1.9-7.3,2.1-11.1
							C253.6,327.6,250.6,327.6,250.6,329.5L250.6,329.5z"/>
					</g>
					<g>
						<path fill="#FFFFFF" d="M265.9,326.8c0.4,4.8-1,9.2-2.6,13.6c-0.7,1.8,2.2,2.6,2.9,0.8c1.7-4.7,3.1-9.4,2.7-14.4
							C268.8,324.9,265.8,324.9,265.9,326.8L265.9,326.8z"/>
					</g>
					<g>
						<path fill="#FFFFFF" d="M129.9,322.2c0.1,5.2-1.1,10.2-1.3,15.3c-0.1,1.9,2.9,1.9,3,0c0.2-5.1,1.4-10.2,1.3-15.3
							C132.9,320.2,129.9,320.2,129.9,322.2L129.9,322.2z"/>
					</g>
					<g>
						<path fill="#FFFFFF" d="M147.3,312.4c-1.8,5.6-1.9,11.5-2.7,17.3c-0.3,1.9,2.6,2.7,2.9,0.8c0.8-5.8,0.9-11.7,2.7-17.3
							C150.8,311.4,147.9,310.6,147.3,312.4L147.3,312.4z"/>
					</g>
					<g>
						<path fill="#FFFFFF" d="M165.9,324.2c0.1,2.9-0.3,5.8-0.7,8.7c-0.2,1.9,2.8,1.9,3,0c0.3-2.9,0.8-5.8,0.7-8.7
							C168.8,322.2,165.8,322.2,165.9,324.2L165.9,324.2z"/>
					</g>
					<g>
						<path fill="#FFFFFF" d="M193.9,314.8c-0.5,5.7-1,12.1-3.8,17.2c-0.9,1.7,1.7,3.2,2.6,1.5c3.1-5.6,3.6-12.5,4.2-18.8
							C197.1,312.9,194.1,312.9,193.9,314.8L193.9,314.8z"/>
					</g>
					<g>
						<path fill="#FFFFFF" d="M211.3,329.1c-0.4,1.9-1,3.8-1.8,5.6c-0.8,1.7,1.8,3.3,2.6,1.5c1-2,1.7-4.2,2.2-6.4
							C214.6,328,211.7,327.2,211.3,329.1L211.3,329.1z"/>
					</g>
					<g>
						<path fill="#FFFFFF" d="M239.3,329.8c-1.6,6.3-2.8,12.7-5.3,18.7c-0.8,1.8,2.2,2.6,2.9,0.8c2.5-6,3.7-12.4,5.3-18.7
							C242.7,328.7,239.8,327.9,239.3,329.8L239.3,329.8z"/>
					</g>
					<g>
						<path fill="#FFFFFF" d="M256.1,362.1c-1.7,2.3-3.6,4.4-5.8,6.4c-1.4,1.3,0.7,3.4,2.1,2.1c2.3-2.1,4.4-4.4,6.2-7
							C259.8,362,257.2,360.5,256.1,362.1L256.1,362.1z"/>
					</g>
					<g>
						<path fill="#FFFFFF" d="M242,361.5c-4.6,3.3-6.4,8.5-9.2,13.2c-1,1.7,1.6,3.2,2.6,1.5c2.5-4.1,4.1-9.2,8.1-12.1
							C245,363,243.5,360.4,242,361.5L242,361.5z"/>
					</g>
					<g>
						<path fill="#FFFFFF" d="M218.6,347.1c-1.7,5-4.1,9.7-6,14.7c-0.7,1.8,2.2,2.6,2.9,0.8c1.9-4.9,4.3-9.7,6-14.7
							C222.2,346.1,219.3,345.3,218.6,347.1L218.6,347.1z"/>
					</g>
					<g>
						<path fill="#FFFFFF" d="M195.9,346.8c-0.2,3.4-1.2,6.6-1.3,10c-0.1,1.9,2.9,1.9,3,0c0.2-3.4,1.1-6.6,1.3-10
							C199,344.9,196,344.9,195.9,346.8L195.9,346.8z"/>
					</g>
					<g>
						<path fill="#FFFFFF" d="M176.6,339.5c0,5,0.3,10-0.6,14.9c-0.4,1.9,2.5,2.7,2.9,0.8c1-5.2,0.7-10.5,0.7-15.7
							C179.6,337.6,176.6,337.6,176.6,339.5L176.6,339.5z"/>
					</g>
					<g>
						<path fill="#FFFFFF" d="M152.6,339.5c0,5.1,0.3,10.2,0.7,15.3c0.1,1.9,3.1,1.9,3,0c-0.3-5.1-0.6-10.2-0.7-15.3
							C155.6,337.6,152.6,337.6,152.6,339.5L152.6,339.5z"/>
					</g>
					<g>
						<path fill="#FFFFFF" d="M134.8,360.2c1.8,4.3,5.3,7.5,8.2,11c1.2,1.5,3.4-0.7,2.1-2.1c-2.8-3.3-6.1-6.3-7.8-10.4
							C136.6,357,134,358.5,134.8,360.2L134.8,360.2z"/>
					</g>
					<g>
						<path fill="#FFFFFF" d="M155.7,377.9c2.6,2.3,2,7,2.9,10c0.6,1.8,3.5,1.1,2.9-0.8c-1.2-3.7-0.6-8.5-3.7-11.3
							C156.4,374.5,154.2,376.6,155.7,377.9L155.7,377.9z"/>
					</g>
					<g>
						<path fill="#FFFFFF" d="M166.6,365.5c-0.1,4.3,0.9,8.4,1.3,12.7c0.2,1.9,3.2,1.9,3,0c-0.4-4.2-1.4-8.4-1.3-12.7
							C169.6,363.6,166.6,363.6,166.6,365.5L166.6,365.5z"/>
					</g>
					<g>
						<path fill="#FFFFFF" d="M191.2,367.5c0.1,4.2,0,8.3-1.3,12.3c-0.6,1.9,2.3,2.6,2.9,0.8c1.3-4.2,1.5-8.6,1.4-13.1
							C194.2,365.6,191.2,365.6,191.2,367.5L191.2,367.5z"/>
					</g>
					<g>
						<path fill="#FFFFFF" d="M207.2,372.2c0,3.5-1.5,6.8-1.9,10.3c-0.3,1.9,2.6,2.7,2.9,0.8c0.5-3.7,2-7.3,2.1-11.1
							C210.3,370.2,207.3,370.2,207.2,372.2L207.2,372.2z"/>
					</g>
					<g>
						<path fill="#FFFFFF" d="M219.3,377.8c-1.2,4.8-3.1,9.3-4.7,14c-0.6,1.8,2.3,2.6,2.9,0.8c1.6-4.7,3.4-9.2,4.7-14
							C222.7,376.7,219.8,375.9,219.3,377.8L219.3,377.8z"/>
					</g>
					<g>
						<path fill="#FFFFFF" d="M233,390.4c-1.5,1.6-3.2,3.1-5,4.4c-1.6,1.1-0.1,3.7,1.5,2.6c2-1.4,3.9-3.1,5.6-4.9
							C236.4,391.1,234.3,389,233,390.4L233,390.4z"/>
					</g>
					<g>
						<path fill="#FFFFFF" d="M169.2,400.2c0.4,4,1.9,7.8,2.7,11.7c0.4,1.9,3.3,1.1,2.9-0.8c-0.7-3.7-2.3-7.2-2.6-10.9
							C172.1,398.2,169.1,398.2,169.2,400.2L169.2,400.2z"/>
					</g>
					<g>
						<path fill="#FFFFFF" d="M179.9,386.8c0.5,4.3,2.3,8.2,3.4,12.4c0.5,1.9,3.4,1.1,2.9-0.8c-1-3.9-2.8-7.6-3.3-11.6
							C182.7,384.9,179.7,384.9,179.9,386.8L179.9,386.8z"/>
					</g>
					<g>
						<path fill="#FFFFFF" d="M196.6,394.8c0,4.9,0,9.8,0,14.7c0,1.9,3,1.9,3,0c0-4.9,0-9.8,0-14.7
							C199.6,392.9,196.6,392.9,196.6,394.8L196.6,394.8z"/>
					</g>
					<g>
						<path fill="#FFFFFF" d="M211.2,401.5c-0.4,3.8-1.3,7.5-1.3,11.3c0,1.9,3,1.9,3,0c0.1-3.8,0.9-7.5,1.3-11.3
							C214.4,399.6,211.4,399.6,211.2,401.5L211.2,401.5z"/>
					</g>
					<g>
						<path fill="#FFFFFF" d="M224.3,413.8c-2.6,3.2-4.3,7.3-7.7,9.8c-1.6,1.1-0.1,3.7,1.5,2.6c3.7-2.7,5.5-6.8,8.3-10.2
							C227.7,414.4,225.6,412.3,224.3,413.8L224.3,413.8z"/>
					</g>
					<g>
						<path fill="#FFFFFF" d="M182.6,414.2c0.5,4.3,2.4,8.2,3.4,12.4c0.4,1.9,3.3,1.1,2.9-0.8c-0.9-3.9-2.8-7.6-3.3-11.6
							C185.3,412.3,182.3,412.2,182.6,414.2L182.6,414.2z"/>
					</g>
					<g>
						<path fill="#FFFFFF" d="M198.6,421.9c0.8,2,1.2,4.1,1.3,6.3c0.1,1.9,3.1,1.9,3,0c-0.1-2.4-0.5-4.8-1.4-7.1
							C200.8,419.3,197.9,420.1,198.6,421.9L198.6,421.9z"/>
					</g>
				</g>
			</g>
			<g>
				<g>
					<g>
						<path fill="#D17DB4" d="M717.1,437.7c1.5,4.9,2.1,9.9,3.8,14.8c0.6,1.8,3.4,0.7,2.8-1.1c-1.7-4.8-2.3-9.9-3.8-14.8
							C719.3,434.7,716.5,435.8,717.1,437.7L717.1,437.7z"/>
					</g>
					<g>
						<path fill="#D17DB4" d="M713.4,462.4c1.9,4.4,5,8.3,5.3,13.2c0.1,1.9,3.1,1.5,3-0.4c-0.3-5.2-3.5-9.3-5.5-13.9
							C715.4,459.5,712.6,460.6,713.4,462.4L713.4,462.4z"/>
					</g>
					<g>
						<path fill="#D17DB4" d="M701.9,479.3c3.7,4.5,4.8,10.4,7.7,15.4c0.9,1.7,3.7,0.5,2.8-1.1c-3-5.3-4.2-11.4-8.1-16.1
							C703.1,476,700.7,477.8,701.9,479.3L701.9,479.3z"/>
					</g>
					<g>
						<path fill="#D17DB4" d="M698.4,500.8c3.2,5.8,8.3,10.6,10,17.1c0.5,1.9,3.5,1.5,3-0.4c-1.8-6.9-6.8-11.7-10.2-17.9
							C700.2,498,697.4,499.1,698.4,500.8L698.4,500.8z"/>
					</g>
					<g>
						<path fill="#D17DB4" d="M696.4,526.7c1.8,6,5.6,11.1,7.3,17.1c0.5,1.9,3.3,0.7,2.8-1.1c-1.6-6-5.4-11.1-7.3-17.1
							C698.6,523.7,695.8,524.9,696.4,526.7L696.4,526.7z"/>
					</g>
					<g>
						<path fill="#D17DB4" d="M678.7,545.3c2.2,3.9,5.5,7.2,7.1,11.4c0.7,1.8,3.5,0.7,2.8-1.1c-1.6-4.2-4.8-7.5-7.1-11.4
							C680.6,542.6,677.8,543.7,678.7,545.3L678.7,545.3z"/>
					</g>
					<g>
						<path fill="#D17DB4" d="M690.5,537.3c-2.4-4.2-5-8.3-7.7-12.3c-1.1-1.6-3.5,0.2-2.4,1.8c2.6,3.8,5,7.6,7.3,11.6
							C688.7,540.1,691.5,539,690.5,537.3L690.5,537.3z"/>
					</g>
					<g>
						<path fill="#D17DB4" d="M668.9,545.3c-4.3-3-6.9-7.9-10-12c-1.2-1.5-3.5,0.3-2.4,1.8c3.3,4.4,6,9.4,10.6,12.6
							C668.7,548.8,670.5,546.4,668.9,545.3L668.9,545.3z"/>
					</g>
					<g>
						<path fill="#D17DB4" d="M687.2,509.2c-0.9-4.1-2.6-7.8-3.8-11.8c-0.6-1.9-3.3-0.7-2.8,1.1c1.1,3.7,2.8,7.2,3.6,11
							C684.6,511.4,687.6,511.1,687.2,509.2L687.2,509.2z"/>
					</g>
					<g>
						<path fill="#D17DB4" d="M672,525.3c-2.5-1.8-4.1-4.3-5.9-6.7c-1.2-1.5-3.6,0.3-2.4,1.8c2,2.6,3.8,5.4,6.5,7.3
							C671.8,528.8,673.6,526.4,672,525.3L672,525.3z"/>
					</g>
					<g>
						<path fill="#D17DB4" d="M648,533.3c-2.8-3.8-6-7.1-10-9.6c-1.6-1-3.4,1.3-1.8,2.4c3.8,2.4,6.8,5.5,9.4,9.1
							C646.8,536.7,649.1,534.9,648,533.3L648,533.3z"/>
					</g>
					<g>
						<path fill="#D17DB4" d="M620.5,521.6c-3.1-4.1-6.2-8.1-9.3-12.2c-1.2-1.5-3.6,0.3-2.4,1.8c3.1,4.1,6.2,8.1,9.3,12.2
							C619.3,525,621.7,523.2,620.5,521.6L620.5,521.6z"/>
					</g>
					<g>
						<path fill="#D17DB4" d="M635,511c-2-5.2-5.8-10-10.2-13.3c-1.5-1.2-3.4,1.2-1.8,2.4c4,3,7.5,7.3,9.3,12.1
							C632.9,514,635.7,512.8,635,511L635,511z"/>
					</g>
					<g>
						<path fill="#D17DB4" d="M653.5,516.4c-2.7-4.2-4-9-7.4-12.8c-1.3-1.4-3.7,0.4-2.4,1.8c3.3,3.8,4.7,8.7,7.4,12.8
							C652.2,519.9,654.6,518.1,653.5,516.4L653.5,516.4z"/>
					</g>
					<g>
						<path fill="#D17DB4" d="M667.5,503.3c-1.3-5.6-3.8-11-6.9-15.8c-1-1.6-3.4,0.2-2.4,1.8c2.8,4.4,5.1,9.3,6.3,14.4
							C665,505.5,668,505.2,667.5,503.3L667.5,503.3z"/>
					</g>
					<g>
						<path fill="#D17DB4" d="M691.7,489.6c-2.3-3.7-4.9-7.2-6.3-11.4c-0.6-1.8-3.4-0.7-2.8,1.1c1.5,4.4,4.3,8.2,6.7,12.1
							C690.4,493.1,692.7,491.2,691.7,489.6L691.7,489.6z"/>
					</g>
					<g>
						<path fill="#D17DB4" d="M705.2,461.3c-2-3.6-4.1-7.1-5.2-11.1c-0.5-1.9-3.3-0.7-2.8,1.1c1.1,4,3.2,7.5,5.2,11.1
							C703.4,464.1,706.2,462.9,705.2,461.3L705.2,461.3z"/>
					</g>
					<g>
						<path fill="#D17DB4" d="M687.7,462.4c-2-2.4-3.3-5.3-5.2-7.8c-1.2-1.6-3.5,0.3-2.4,1.8c1.9,2.5,3.2,5.4,5.2,7.8
							C686.5,465.8,688.9,463.9,687.7,462.4L687.7,462.4z"/>
					</g>
					<g>
						<path fill="#D17DB4" d="M670.3,482.5c-3-3.8-5.4-7.9-7.7-12.1c-0.9-1.7-3.7-0.6-2.8,1.1c2.4,4.4,4.9,8.8,8.1,12.8
							C669.2,485.9,671.5,484,670.3,482.5L670.3,482.5z"/>
					</g>
					<g>
						<path fill="#D17DB4" d="M642.6,487c-2.2-3.8-4.7-7.4-6.3-11.4c-0.7-1.8-3.5-0.7-2.8,1.1c1.7,4.3,4.4,8.1,6.7,12.1
							C641.2,490.5,643.6,488.6,642.6,487L642.6,487z"/>
					</g>
					<g>
						<path fill="#D17DB4" d="M616.2,485.4c-2-2.9-3.1-6.3-4.7-9.3c-0.9-1.7-3.7-0.6-2.8,1.1c1.8,3.3,2.9,6.9,5.1,10
							C615,488.8,617.4,487,616.2,485.4L616.2,485.4z"/>
					</g>
					<g>
						<path fill="#D17DB4" d="M605.7,496.9c-3.2-3.5-4.8-7.9-6.2-12.4c-0.6-1.8-3.4-0.7-2.8,1.1c1.5,4.7,3.3,9.3,6.6,13.1
							C604.6,500.1,607,498.3,605.7,496.9L605.7,496.9z"/>
					</g>
					<g>
						<path fill="#D17DB4" d="M716.4,417.7c-3.2-4-5.3-8.8-8.3-13c-1.1-1.6-3.5,0.3-2.4,1.8c3,4.2,5.1,8.9,8.3,13
							C715.2,421,717.6,419.2,716.4,417.7L716.4,417.7z"/>
					</g>
					<g>
						<path fill="#D17DB4" d="M708.5,436c-2-5.5-5.6-10.3-8.4-15.4c-0.9-1.7-3.7-0.5-2.8,1.1c2.9,5.1,6.5,9.8,8.4,15.4
							C706.4,439,709.2,437.8,708.5,436L708.5,436z"/>
					</g>
					<g>
						<path fill="#D17DB4" d="M686.6,438.1c-1.8-2.3-3.3-4.8-4.8-7.3c-1-1.7-3.4,0.2-2.4,1.8c1.5,2.5,2.9,5,4.8,7.3
							C685.5,441.4,687.8,439.6,686.6,438.1L686.6,438.1z"/>
					</g>
					<g>
						<path fill="#D17DB4" d="M670.1,462.5c-3-4.8-6.6-10.2-7.5-16c-0.3-1.9-3.3-1.5-3,0.4c0.9,6.3,4.7,12.1,8.1,17.4
							C668.7,466,671.1,464.1,670.1,462.5L670.1,462.5z"/>
					</g>
					<g>
						<path fill="#D17DB4" d="M647.6,461.8c-0.9-1.8-1.5-3.7-2-5.6c-0.4-1.9-3.4-1.5-3,0.4c0.5,2.2,1.2,4.3,2.2,6.4
							C645.7,464.7,648.5,463.5,647.6,461.8L647.6,461.8z"/>
					</g>
					<g>
						<path fill="#D17DB4" d="M625,478.3c-2.6-6-5.5-11.8-7.1-18.1c-0.5-1.9-3.3-0.7-2.8,1.1c1.6,6.3,4.6,12.1,7.1,18.1
							C623,481.2,625.8,480.1,625,478.3L625,478.3z"/>
					</g>
					<g>
						<path fill="#D17DB4" d="M592,463c-0.1-2.9,0.2-5.7,0.7-8.6c0.4-1.9-2.6-2.3-3-0.4c-0.6,3.1-0.8,6.2-0.7,9.3
							C589.1,465.3,592.1,464.9,592,463L592,463z"/>
					</g>
					<g>
						<path fill="#D17DB4" d="M603.5,454.8c1.6-5.4-0.1-10.7-0.7-16.1c-0.2-1.9-3.2-1.5-3,0.4c0.6,4.8,2.4,9.8,0.9,14.6
							C600.2,455.5,603,456.6,603.5,454.8L603.5,454.8z"/>
					</g>
					<g>
						<path fill="#D17DB4" d="M630.8,452c-1.7-5-2.7-10.2-4.2-15.3c-0.5-1.9-3.3-0.7-2.8,1.1c1.5,5.1,2.5,10.3,4.2,15.3
							C628.7,455,631.4,453.8,630.8,452L630.8,452z"/>
					</g>
					<g>
						<path fill="#D17DB4" d="M649,438.4c-1.9-2.8-3.1-6-5-8.7c-1.1-1.6-3.5,0.2-2.4,1.8c1.9,2.8,3.1,6,5,8.7
							C647.7,441.8,650.1,440,649,438.4L649,438.4z"/>
					</g>
					<g>
						<path fill="#D17DB4" d="M668.8,432.4c-3.1-3.9-6.3-7.7-8.6-12.2c-0.9-1.7-3.7-0.6-2.8,1.1c2.4,4.7,5.8,8.7,9,12.9
							C667.6,435.8,670,433.9,668.8,432.4L668.8,432.4z"/>
					</g>
					<g>
						<path fill="#D17DB4" d="M687.8,417.8c-3.1-4-6.5-7.9-9.9-11.8c-1.3-1.4-3.7,0.4-2.4,1.8c3.4,3.9,6.7,7.7,9.9,11.8
							C686.6,421.1,689,419.3,687.8,417.8L687.8,417.8z"/>
					</g>
					<g>
						<path fill="#D17DB4" d="M689.3,390.5c-4-2.3-8.8-2.7-13.2-3.7c-1.9-0.4-2.3,2.6-0.4,3c4.2,0.9,8.6,1.3,12.5,3.5
							C689.8,394.2,691,391.4,689.3,390.5L689.3,390.5z"/>
					</g>
					<g>
						<path fill="#D17DB4" d="M662,389.2c-3.4-0.2-5.8-4.3-8.4-6.1c-1.6-1.1-3.4,1.3-1.8,2.4c3.2,2.2,5.6,6.4,9.9,6.7
							C663.5,392.3,663.9,389.4,662,389.2L662,389.2z"/>
					</g>
					<g>
						<path fill="#D17DB4" d="M660.9,405.7c-2.5-3.5-5.9-6.1-8.8-9.2c-1.3-1.4-3.7,0.4-2.4,1.8c2.9,3.1,6.2,5.8,8.8,9.2
							C659.7,409.1,662,407.2,660.9,405.7L660.9,405.7z"/>
					</g>
					<g>
						<path fill="#D17DB4" d="M640.1,419.1c-2.6-3.2-5-6.6-6.5-10.5c-0.7-1.8-3.4-0.7-2.8,1.1c1.5,4.2,4.1,7.8,6.9,11.2
							C639,422.5,641.3,420.6,640.1,419.1L640.1,419.1z"/>
					</g>
					<g>
						<path fill="#D17DB4" d="M624.6,425.2c-2.1-2.8-3-6.3-4.7-9.3c-0.9-1.7-3.7-0.5-2.8,1.1c1.9,3.3,2.8,7,5.1,10
							C623.4,428.6,625.7,426.7,624.6,425.2L624.6,425.2z"/>
					</g>
					<g>
						<path fill="#D17DB4" d="M611.6,428.1c-1.9-4.5-3.3-9.3-4.8-13.9c-0.6-1.8-3.4-0.7-2.8,1.1c1.6,4.7,2.9,9.4,4.8,13.9
							C609.6,431,612.4,429.9,611.6,428.1L611.6,428.1z"/>
					</g>
					<g>
						<path fill="#D17DB4" d="M593,426.4c0.2-2.2,0.6-4.4,1.3-6.6c0.6-1.8-2.2-3-2.8-1.1c-0.7,2.4-1.3,4.8-1.5,7.3
							C589.9,427.9,592.8,428.3,593,426.4L593,426.4z"/>
					</g>
					<g>
						<path fill="#D17DB4" d="M637.7,379.8c-2.8-3-6.3-5-9.3-7.6c-1.5-1.3-3.3,1.1-1.8,2.4c2.8,2.5,6.2,4.3,8.7,7.1
							C636.6,383.1,639,381.2,637.7,379.8L637.7,379.8z"/>
					</g>
					<g>
						<path fill="#D17DB4" d="M637.3,396.9c-3-3.1-6.8-5.1-10.2-7.8c-1.5-1.2-3.3,1.2-1.8,2.4c3.2,2.5,6.9,4.3,9.7,7.2
							C636.3,400.1,638.7,398.3,637.3,396.9L637.3,396.9z"/>
					</g>
					<g>
						<path fill="#D17DB4" d="M619.2,400.7c-3-3.9-6-7.8-8.9-11.6c-1.2-1.5-3.6,0.3-2.4,1.8c3,3.9,6,7.8,8.9,11.6
							C618,404.1,620.4,402.2,619.2,400.7L619.2,400.7z"/>
					</g>
					<g>
						<path fill="#D17DB4" d="M603.5,404.4c-2-3.2-3.6-6.7-5.8-9.8c-1.1-1.6-3.5,0.3-2.4,1.8c2.3,3.1,3.8,6.6,5.8,9.8
							C602.2,407.8,604.5,406,603.5,404.4L603.5,404.4z"/>
					</g>
					<g>
						<path fill="#D17DB4" d="M585.7,402.6c0.1-4.1-1.1-8.4,0.2-12.4c0.6-1.8-2.2-3-2.8-1.1c-1.3,4.4-0.2,8.7-0.3,13.2
							C582.6,404.1,585.6,404.6,585.7,402.6L585.7,402.6z"/>
					</g>
					<g>
						<path fill="#D17DB4" d="M618.6,376.8c-3-3.1-6.9-5-10.2-7.8c-1.5-1.2-3.3,1.2-1.8,2.4c3.1,2.6,6.8,4.3,9.7,7.2
							C617.5,380,619.9,378.2,618.6,376.8L618.6,376.8z"/>
					</g>
					<g>
						<path fill="#D17DB4" d="M601.1,380.5c-1.8-1.1-3.5-2.5-4.8-4.2c-1.2-1.5-3.6,0.3-2.4,1.8c1.5,1.9,3.3,3.5,5.4,4.8
							C600.9,383.9,602.8,381.5,601.1,380.5L601.1,380.5z"/>
					</g>
				</g>
			</g>
		</g>
	</g>
</g>
</svg>
